<?xml version="1.0" encoding="utf-8"?>
<!-- Generator: Adobe Illustrator 24.2.1, SVG Export Plug-In . SVG Version: 6.00 Build 0)  -->
<svg version="1.1" id="Layer_1" xmlns="http://www.w3.org/2000/svg" xmlns:xlink="http://www.w3.org/1999/xlink" x="0px" y="0px"
	 viewBox="0 0 552 552" style="enable-background:new 0 0 552 552;" xml:space="preserve">
<style type="text/css">
	.st0{fill:none;stroke:#bfbccd;stroke-width:40;stroke-miterlimit:10;}
	.st1{fill:#bfbccd;}
</style>
<path class="st0" d="M91.3,20h369.4c39.4,0,71.3,31.9,71.3,71.3v369.4c0,39.4-31.9,71.3-71.3,71.3H91.3C51.9,532,20,500.1,20,460.7
	V91.3C20,51.9,51.9,20,91.3,20z"/>
<g>
	<path class="st1" d="M278.9,372.2c36.7,0,87.9,0.9,106.5-37.5c7-14.7,8.6-31.6,8.6-47.6h0c0-21-5.7-41-19.2-57.2
		c2.5-7.8,3.8-15.9,3.8-24.2c0-10.8-2.4-16.2-7.2-26c-22,0-36.3,4.3-53,17.6c-12.9-3.2-26.2-4.6-39.5-4.6c-14.7,0-29.4,1.6-43.6,5
		c-17-13.5-31.2-18-53.5-18c-4.8,9.8-7.2,15.2-7.2,26c0,8.2,1.2,16.5,3.8,24.5c-13.6,16.1-20.4,35.9-20.4,56.9
		c0,16,2.8,33.1,9.9,47.6C187.3,373.6,241.6,372.2,278.9,372.2L278.9,372.2z M226.9,271c9.3,0,18.3,1.7,27.5,3
		c33.6,5.3,51.3-3,71.9-3c23,0,36.1,19.4,36.1,41.4c0,44.1-39.5,50.8-74,50.8h-23.7c-34.4,0-73.9-6.8-73.9-50.8
		C190.7,290.4,203.8,271,226.9,271L226.9,271z"/>
	<path class="st1" d="M321.8,340.1c12.7,0,18-17.1,18-27.6c0-10.5-5.4-27.6-18-27.6s-18,17.1-18,27.6S309.1,340.1,321.8,340.1
		L321.8,340.1z"/>
	<path class="st1" d="M231.5,340.1c12.7,0,18-17.1,18-27.6c0-10.5-5.4-27.6-18-27.6c-12.7,0-18,17.1-18,27.6
		S218.8,340.1,231.5,340.1L231.5,340.1z"/>
</g>
</svg>
