<?xml version="1.0" encoding="utf-8"?>
<!-- Generator: Adobe Illustrator 24.2.1, SVG Export Plug-In . SVG Version: 6.00 Build 0)  -->
<svg version="1.1" id="Layer_3" xmlns="http://www.w3.org/2000/svg" xmlns:xlink="http://www.w3.org/1999/xlink" x="0px" y="0px"
	 viewBox="0 0 140 141.3" style="enable-background:new 0 0 140 141.3;" xml:space="preserve">
<style type="text/css">
	.st0{fill:#E1DEE9;stroke:#E1DEE9;stroke-width:2;stroke-miterlimit:10;}
</style>
<path class="st0" d="M69.9,135.3c-11.2,0-22.3-3-32.1-8.6l-0.8-0.4l-27.5,8.9c-0.3,0.1-0.6,0.2-1,0.2c-0.3,0-0.7-0.1-1-0.2
	c-0.8-0.3-1.5-0.8-1.9-1.6c-0.4-0.8-0.5-1.6-0.2-2.4l8.9-27.5l-0.4-0.8c-5.6-9.8-8.6-20.9-8.6-32.2c0-17.3,6.7-33.5,18.9-45.7
	C36.5,12.7,52.7,6,70,6c11.3,0,22.4,3,32.2,8.6c15,8.6,25.7,22.5,30.2,39.2c4.5,16.7,2.3,34.1-6.3,49.1
	C114.6,122.9,93.1,135.3,69.9,135.3C69.9,135.3,69.9,135.3,69.9,135.3z M37.5,119.6c0.6,0,1.2,0.2,1.7,0.5
	c9.3,5.8,19.9,8.8,30.8,8.8c11,0,21.6-3,30.9-8.8c27.3-17,35.6-53,18.6-80.2C108.7,22.7,90.2,12.4,70,12.4
	c-10.9,0-21.5,3.1-30.8,8.8C26,29.5,16.8,42.3,13.3,57.5s-0.9,30.8,7.3,44c0.5,0.8,0.6,1.8,0.3,2.7l-7.4,23l22.9-7.4
	C36.8,119.6,37.1,119.6,37.5,119.6z M96,75.2c-2.5,0-4.5-2-4.5-4.5s2-4.5,4.5-4.5c2.3,0,4.3,1.7,4.5,4l0,0.5
	C100.5,73.1,98.5,75.2,96,75.2z M70,75.2c-2.5,0-4.5-2-4.5-4.5s2-4.5,4.5-4.5c2.4,0,4.4,1.9,4.5,4.2l0,0.3
	C74.5,73.1,72.5,75.2,70,75.2z M43.9,75.2c-2.5,0-4.5-2-4.5-4.5c0-2.5,2-4.5,4.5-4.5c2.4,0,4.3,1.8,4.5,4l0,0.5
	C48.4,73.1,46.4,75.2,43.9,75.2z"/>
</svg>
