<?xml version="1.0" encoding="utf-8"?>
<!-- Generator: Adobe Illustrator 24.2.1, SVG Export Plug-In . SVG Version: 6.00 Build 0)  -->
<svg version="1.1" id="Layer_1" xmlns="http://www.w3.org/2000/svg" xmlns:xlink="http://www.w3.org/1999/xlink" x="0px" y="0px"
	 viewBox="0 0 512 512" style="enable-background:new 0 0 512 512;" xml:space="preserve">
<style type="text/css">
	.st0{fill:#17171C;}
</style>
<g>
	<path class="st0" d="M512,512v-30h-86.8V127.5c0-29.4-10-56.4-26.7-78c24.2-3.4,42.9-24.3,42.9-49.5h-30c0,11-9,20-20,20h-14.9
		c-3.3,0-6.5,0.1-9.8,0.3C346.8,7.5,323.1,0,297.7,0h-83.4c-25.4,0-49.1,7.5-69,20.4c-3.2-0.2-6.5-0.3-9.8-0.3h-14.9
		c-11,0-20-9-20-20h-30c0,25.2,18.7,46,42.9,49.5c-16.7,21.6-26.7,48.6-26.7,78v147.1c0,63.4,24.7,123,69.5,167.8
		c15.7,15.7,33.3,29,52.1,39.5H0v30L512,512z M395.2,413.2c-21.9-6.5-38-26.8-38-50.8v-26.1h-30v26.1c0,40.6,29.4,74.5,68,81.6v37
		c-58.6-7.4-104-57.5-104-118.1V278c42.5-4.9,79.7-27.4,104-60.1V413.2z M214.3,30h83.4c7.6,0,14.9,0.9,22,2.5
		c-27.4,12.7-49.9,34.3-63.7,61.1c-13.8-26.8-36.3-48.4-63.7-61.1C199.3,30.9,206.7,30,214.3,30L214.3,30z M153.3,51.5
		C203,60,241,103.4,241,155.5v34.8h30v-34.8c0-52.1,38-95.5,87.7-104c22.2,17.9,36.5,45.3,36.5,76c0,67-54.5,121.5-121.5,121.5
		h-35.4c-67,0-121.5-54.5-121.5-121.5C116.8,96.8,131,69.4,153.3,51.5L153.3,51.5z M116.8,274.6v-56.7
		C144.4,255,188.6,279,238.3,279h22.9v83.9c0,48.6,23.3,91.8,59.4,119C207.9,480,116.8,387.8,116.8,274.6L116.8,274.6z"/>
	<path class="st0" d="M330.7,167.3c14.6,0,26.4-11.9,26.4-26.4s-11.9-26.4-26.4-26.4s-26.4,11.9-26.4,26.4S316.2,167.3,330.7,167.3z
		"/>
	<path class="st0" d="M181.2,167.3c14.6,0,26.4-11.9,26.4-26.4s-11.9-26.4-26.4-26.4s-26.4,11.9-26.4,26.4S166.7,167.3,181.2,167.3z
		"/>
</g>
</svg>
