<?xml version="1.0" encoding="utf-8"?>
<!-- Generator: Adobe Illustrator 24.2.1, SVG Export Plug-In . SVG Version: 6.00 Build 0)  -->
<svg version="1.1" id="Layer_2" xmlns="http://www.w3.org/2000/svg" xmlns:xlink="http://www.w3.org/1999/xlink" x="0px" y="0px"
	 viewBox="0 0 140 141.3" style="enable-background:new 0 0 140 141.3;" xml:space="preserve">
<style type="text/css">
	.st0{fill:#FFFFFF;}
</style>
<g>
	<path class="st0" d="M50.5,26.7c2.3,0,4.1-1.8,4.1-4.1v-8.3c0-2.3-1.8-4.1-4.1-4.1c-2.3,0-4.1,1.8-4.1,4.1v8.3
		C46.4,24.8,48.3,26.7,50.5,26.7z"/>
	<path class="st0" d="M13.3,41.7l-7.2-4.1c-2-1.1-4.5-0.5-5.6,1.5c-1.1,2-0.5,4.5,1.5,5.6l7.2,4.1c2,1.1,4.5,0.5,5.6-1.5
		C15.9,45.3,15.3,42.8,13.3,41.7z"/>
	<path class="st0" d="M9.2,87l-7.2,4.1c-2,1.1-2.6,3.6-1.5,5.6c1.1,2,3.7,2.6,5.6,1.5l7.2-4.1c2-1.1,2.6-3.6,1.5-5.6
		C13.7,86.6,11.2,85.9,9.2,87L9.2,87z"/>
	<path class="st0" d="M91.8,48.8l7.2-4.1c2-1.1,2.6-3.6,1.5-5.6c-1.1-2-3.6-2.6-5.6-1.5l-7.2,4.1c-2,1.1-2.6,3.6-1.5,5.6
		C87.4,49.3,89.9,49.9,91.8,48.8z"/>
	<path class="st0" d="M109.1,73.7C104.4,62.1,93,54.5,80.5,54.5c-5.1-11.4-16.6-19.4-30-19.4c-18.1,0-32.8,14.7-32.8,32.8
		c0,11.6,6.1,21.8,15.2,27.7c-9.7,15.4,1.3,35.5,19.5,35.5c64.5-0.1,61,0.2,62.1-0.2c14.3-1.6,25.5-13.8,25.5-28.5
		C140,85.5,125.6,72.4,109.1,73.7z M25.9,67.9c0-13.6,11-24.6,24.6-24.6c9.2,0,17.1,5,21.4,12.5c-13,3.8-22,15.6-22.1,29.2
		c-4.1,0.4-7.9,2-11.2,4.5C31,85.2,25.9,77.1,25.9,67.9z M113,122.8c-1.5,0.1-38.7,0-60.6,0.1c-13.5,0-20.1-16.8-10.1-26
		c3-2.8,7-4.2,11.4-3.8c2.6,0.2,4.8-2,4.4-4.7c-1.9-13.6,8.6-25.7,22.3-25.7c10.2,0,19.1,6.8,21.8,16.6c0.6,2.1,2.7,3.4,4.8,2.9
		c12.8-2.6,24.7,7.1,24.7,20.1C131.8,113,123.6,121.9,113,122.8z"/>
</g>
</svg>
