<?xml version="1.0" encoding="utf-8"?>
<!-- Generator: Adobe Illustrator 24.2.1, SVG Export Plug-In . SVG Version: 6.00 Build 0)  -->
<svg version="1.1" id="Layer_3" xmlns="http://www.w3.org/2000/svg" xmlns:xlink="http://www.w3.org/1999/xlink" x="0px" y="0px"
	 viewBox="0 0 140 141.3" style="enable-background:new 0 0 140 141.3;" xml:space="preserve">
<style type="text/css">
	.st0{fill:#FFFFFF;stroke:#FFFFFF;stroke-width:2;stroke-miterlimit:10;}
</style>
<path class="st0" d="M70.4,134.8c-34.8,0-63.1-28.3-63.1-63.1c0-10.1,2.5-20.2,7.1-29.1l1.2-2.4l-2.2-1.6
	c-2.2-1.6-2.6-10.1-1.1-20.8c2.1,2.4,5.2,5.4,9.5,9.1l2.2,1.9l2.1-2C38,15,53.8,8.5,70.4,8.5c16.4,0,31.9,6.3,43.7,17.6l2.1,2
	l2.2-1.9c3.9-3.4,6.8-6.3,8.8-8.5c1.4,10.1,1.1,18.3-0.8,20.6l-1.3,1.6l1,1.8c2.8,5.2,4.9,10.8,6.1,16.6h-7.7
	c-1.3-5.2-3.3-10.1-6-14.8l-1.4-2.4l-2.5,1.1c-9,3.8-17,9.5-25.3,18C78.7,71.1,72.9,81.5,69.8,88.5c-3.1-7-8.9-17.3-19.5-28.2
	c-8-8.2-15.7-13.7-24.2-17.5l-2.6-1.1l-1.4,2.4c-4.8,8.4-7.3,17.9-7.3,27.6c0,30.7,25,55.7,55.7,55.7c25.9,0,48.4-18,54.2-43.1h7.6
	C126.4,113.2,100.2,134.8,70.4,134.8z M70.4,16c-14.1,0-27.5,5.3-37.9,14.9l-2.7,2.5l3,2.2c1.8,1.4,3.5,2.6,5.3,3.9
	C62.6,57,66.8,69.1,66.8,69.3l3,9.8l2.9-9.8c0-0.1,4.3-12.2,28.7-29.7c2.1-1.5,4.1-3,6.1-4.5l3-2.3l-2.8-2.5
	C97.5,21.1,84.2,16,70.4,16z"/>
</svg>
