<?xml version="1.0" encoding="utf-8"?>
<!-- Generator: Adobe Illustrator 24.2.1, SVG Export Plug-In . SVG Version: 6.00 Build 0)  -->
<svg version="1.1" id="Layer_1" xmlns="http://www.w3.org/2000/svg" xmlns:xlink="http://www.w3.org/1999/xlink" x="0px" y="0px"
	 viewBox="0 0 512 512" style="enable-background:new 0 0 512 512;" xml:space="preserve">
<style type="text/css">
	.st0{fill:#bfbccd;}
</style>
<path class="st0" d="M401.5,0h-291C83.2,0,61,22.2,61,49.5c0,368.3-0.4,346.1,0.9,349.8c0.8,2.5,2.3,4.7,4,6.4
	c1,1,101.3,101.4,102.8,102.5c6.5,5-3.5,3.4,232.9,3.4c27.3,0,49.5-22.2,49.5-49.5V49.5C451,22.2,428.8,0,401.5,0z M162.1,455.4
	l-44.8-44.8h44.8V455.4z M418,462.2c0,9.1-7.4,16.5-16.5,16.5H195.2v-84.6c0-9.1-7.4-16.5-16.5-16.5H94V49.5
	c0-9.1,7.4-16.5,16.5-16.5h291c9.1,0,16.5,7.4,16.5,16.5V462.2z M365.4,333.3c0,9.1-7.4,16.5-16.5,16.5H162.1
	c-9.1,0-16.5-7.4-16.5-16.5c0-9.1,7.4-16.5,16.5-16.5h186.8C358,316.8,365.4,324.1,365.4,333.3z M365.4,417.9
	c0,9.1-7.4,16.5-16.5,16.5H242.6c-9.1,0-16.5-7.4-16.5-16.5s7.4-16.5,16.5-16.5h106.3C358,401.4,365.4,408.8,365.4,417.9z
	 M255.4,173.4c30.6,0,55.6-24.9,55.6-55.6S286,62.3,255.4,62.3s-55.6,24.9-55.6,55.6S224.7,173.4,255.4,173.4L255.4,173.4z
	 M255.4,95.3c12.4,0,22.5,10.1,22.5,22.5s-10.1,22.5-22.5,22.5s-22.5-10.1-22.5-22.5S242.9,95.3,255.4,95.3L255.4,95.3z
	 M171.8,254.3v-22.6c0-14.3,8.4-27.3,21.5-33.1l26.2-11.7c4.4-2,1.3-1.4,64.8-1.4c4.6,0,4.5,0.4,32.9,13.1
	c13,5.8,21.5,18.8,21.5,33.1v22.6c0,9.1-7.4,16.5-16.5,16.5s-16.5-7.4-16.5-16.5v-22.6c0-1.3-0.7-2.4-1.9-2.9l-23-10.3h-51l-23,10.3
	c-1.2,0.5-1.9,1.7-1.9,2.9v22.6c0,9.1-7.4,16.5-16.5,16.5S171.8,263.4,171.8,254.3L171.8,254.3z"/>
</svg>
