<?xml version="1.0" encoding="utf-8"?>
<!-- Generator: Adobe Illustrator 24.2.1, SVG Export Plug-In . SVG Version: 6.00 Build 0)  -->
<svg version="1.1" id="Layer_1" xmlns="http://www.w3.org/2000/svg" xmlns:xlink="http://www.w3.org/1999/xlink" x="0px" y="0px"
	 viewBox="0 0 106.8 128.6" style="enable-background:new 0 0 106.8 128.6;" xml:space="preserve">
<style type="text/css">
	.st0{fill:#E2DFEB;}
</style>
<g>
	<path class="st0" d="M90.4,86.4h-0.2c5.1-6.9,3.7-16.6-3-21.8c-2.6-2-5.9-3.1-9.2-3.1h-9.3V42.3h1c7.3,0,13.5-5.2,15-12.5h4.3
		l5.4,4.4c1.3,1.1,3.2,0.9,4.3-0.4c1.1-1.3,0.9-3.3-0.4-4.4L95,26.7l3.3-2.8c1.3-1.1,1.5-3.1,0.4-4.4c-1.1-1.3-3-1.5-4.3-0.4
		l-5.3,4.5h-4.3c-1.5-7.2-7.7-12.4-15-12.5H53.4c-8.5,0-15.3,7-15.4,15.6v34.7h-3.8l-4.9-8.7C23.9,43.3,12,40.1,2.7,45.5
		c-0.7,0.4-1.2,1.1-1.4,1.9c-0.2,0.8-0.1,1.7,0.3,2.4l12.7,22.2c-1.6,4.9-0.8,10.2,2.3,14.3h-0.2c-8.5,0.2-15.2,7.4-15,16
		c0.2,8.3,6.8,15,15,15.2h74.1c8.5-0.2,15.2-7.4,15-16C105.2,93.3,98.6,86.6,90.4,86.4z M44.2,30.3c4.8,1.7,7.3,7.1,5.6,11.9
		c-0.9,2.7-3,4.8-5.6,5.7V30.3z M44.2,54.4c8.3-1.7,13.7-9.9,12-18.4c-1.2-6-5.7-10.7-11.6-12.1c1.2-3.9,4.8-6.6,8.8-6.6h16.4
		c5.1,0,9.2,4.2,9.2,9.4S74.9,36,69.8,36h-4.1c-1.7,0-3.1,1.4-3.1,3.1v22.2H44.2V54.4z M49.8,67.7c-1.7,4.9-7,7.4-11.8,5.7
		c-2.6-0.9-4.7-3-5.6-5.7H49.8z M41.1,80.1c7.3,0,13.5-5.2,15-12.5H78c5.1,0,9.2,4.3,9.1,9.4c0,4.1-2.6,7.6-6.5,8.9
		c-1.9-8.4-10.1-13.6-18.4-11.7c-5.9,1.4-10.4,6.1-11.6,12.1H28.8c-5.1,0-9.2-4.3-9.1-9.4c0-4.1,2.6-7.6,6.5-8.9
		C27.8,75.1,34,80.1,41.1,80.1z M74.4,86.4H57c1.7-4.9,7-7.4,11.8-5.7C71.4,81.6,73.4,83.7,74.4,86.4L74.4,86.4z M39.6,92.6
		c-1.7,4.9-7,7.4-11.8,5.7c-2.6-0.9-4.7-3-5.6-5.7H39.6z M8.6,49.7c5.9-1.8,12.3,0.8,15.4,6.2l3.2,5.6c-3.5,0.4-6.8,2-9.3,4.5
		L8.6,49.7z M67.2,111.3c1.7-4.9,7-7.4,11.8-5.7c2.6,0.9,4.7,3,5.6,5.7H67.2z M91,111.3c-1.7-8.4-9.8-13.9-18.1-12.2
		c-6,1.2-10.7,6-12,12.2H16.4c-5.1,0.1-9.3-4.1-9.3-9.3c0-5,3.8-9.2,8.8-9.4c1.7,8.4,9.8,13.9,18.1,12.2c6-1.2,10.7-6,12-12.2h44.5
		c5.1,0.1,9.2,4.3,9.1,9.4C99.5,107,95.8,111,91,111.3L91,111.3z"/>
	<path class="st0" d="M65.7,31.9c-1.7,0-3.1-1.4-3.1-3.1c0,0,0,0,0,0v-4.2c0-1.7,1.4-3.1,3.1-3.1c1.7,0,3.1,1.4,3.1,3.1c0,0,0,0,0,0
		v4.2C68.8,30.5,67.4,31.9,65.7,31.9z"/>
</g>
</svg>
