<?xml version="1.0" encoding="utf-8"?>
<!-- Generator: Adobe Illustrator 24.2.1, SVG Export Plug-In . SVG Version: 6.00 Build 0)  -->
<svg version="1.1" id="Layer_1" xmlns="http://www.w3.org/2000/svg" xmlns:xlink="http://www.w3.org/1999/xlink" x="0px" y="0px"
	 viewBox="0 0 552 552" style="enable-background:new 0 0 552 552;" xml:space="preserve">
<style type="text/css">
	.st0{fill:none;stroke:#FFFFFF;stroke-width:40;stroke-miterlimit:10;}
	.st1{fill:#FFFFFF;}
</style>
<path class="st0" d="M91.3,20h369.4c39.4,0,71.3,31.9,71.3,71.3v369.4c0,39.4-31.9,71.3-71.3,71.3H91.3C51.9,532,20,500.1,20,460.7
	V91.3C20,51.9,51.9,20,91.3,20z"/>
<g>
	<g>
		<g>
			<path class="st1" d="M251.5,267.7c5.7-2.9,10.1-6.1,13-9.5c5.2-6.3,7.9-14.5,7.9-24.8c0-10-2.6-18.5-7.9-25.7
				c-8.7-11.7-23.4-17.7-44.2-17.9h-82.4V358h76.8c8.7,0,16.6-0.7,24.1-2.2c7.4-1.5,13.8-4.4,19.3-8.4c4.9-3.6,8.9-8,12.1-13.3
				c5-7.9,7.6-16.8,7.6-26.8c0-9.6-2.2-17.9-6.6-24.7C266.8,275.8,260.2,270.9,251.5,267.7z M172,219h37.1c8.1,0,14.9,0.8,20.2,2.6
				c6.1,2.5,9.2,7.7,9.2,15.5c0,7-2.3,12-6.9,14.8c-4.7,2.8-10.7,4.2-18,4.2H172L172,219L172,219z M230.7,325.8c-4.1,2-9.9,3-17.3,3
				H172v-44.9h42c7.3,0.1,13,1,17.1,2.8c7.3,3.3,10.8,9.3,10.8,18C241.9,315.2,238.2,322.2,230.7,325.8z"/>
			<rect x="314.4" y="197.6" class="st1" width="73.1" height="20.9"/>
			<path class="st1" d="M412.8,280.2c-1.5-9.7-4.9-18.3-10.1-25.7c-5.7-8.4-13-14.5-21.8-18.4c-8.8-3.9-18.7-5.9-29.6-5.8
				c-18.5,0-33.5,5.8-45.1,17.3c-11.6,11.5-17.4,28-17.4,49.6c0,23,6.4,39.6,19.3,49.8c12.8,10.2,27.6,15.3,44.4,15.3
				c20.4,0,36.2-6.1,47.5-18.1c7.2-7.7,11.3-15.1,12.2-22.5h-33.6c-2,3.6-4.2,6.4-6.8,8.6c-4.7,3.8-10.8,5.7-18.3,5.7
				c-7.1,0-13.2-1.6-18.2-4.7c-8.3-5-12.6-13.7-13.2-26.3H414C414.1,294.2,413.8,285.9,412.8,280.2z M322.9,283.5
				c1.2-8.1,4.1-14.5,8.8-19.3c4.7-4.8,11.2-7.1,19.7-7.1c7.8,0,14.3,2.2,19.5,6.7c5.2,4.5,8.1,11,8.8,19.7L322.9,283.5L322.9,283.5
				z"/>
		</g>
	</g>
</g>
</svg>
