<?xml version="1.0" encoding="utf-8"?>
<!-- Generator: Adobe Illustrator 24.2.1, SVG Export Plug-In . SVG Version: 6.00 Build 0)  -->
<svg version="1.1" id="Layer_1" xmlns="http://www.w3.org/2000/svg" xmlns:xlink="http://www.w3.org/1999/xlink" x="0px" y="0px"
	 viewBox="0 0 104.5 137.2" style="enable-background:new 0 0 104.5 137.2;" xml:space="preserve">
<style type="text/css">
	.st0{fill:#FFFFFF;}
</style>
<g>
	<path class="st0" d="M103.3,33.3L71.2,1.2C70.4,0.4,69.4,0,68.3,0H12.1C5.4,0,0,5.4,0,12.1v113.1c0,6.6,5.4,12.1,12.1,12.1h80.4
		c6.6,0,12.1-5.4,12.1-12.1V36.2C104.5,35.1,104,34,103.3,33.3z M72.3,13.7l18.4,18.4H76.4c-2.2,0-4-1.8-4-4V13.7z M92.4,129.1H12.1
		c-2.2,0-4-1.8-4-4V12.1c0-2.2,1.8-4,4-4h52.2v20.1c0,6.6,5.4,12.1,12.1,12.1h20.1v84.9C96.4,127.3,94.6,129.1,92.4,129.1z"/>
	<path class="st0" d="M76.4,64.8H36.2c-2.2,0-4,1.8-4,4s1.8,4,4,4h40.2c2.2,0,4-1.8,4-4S78.6,64.8,76.4,64.8z"/>
	<path class="st0" d="M76.4,80.9H36.2c-2.2,0-4,1.8-4,4c0,2.2,1.8,4,4,4h40.2c2.2,0,4-1.8,4-4C80.4,82.7,78.6,80.9,76.4,80.9z"/>
	<path class="st0" d="M76.4,97H36.2c-2.2,0-4,1.8-4,4s1.8,4,4,4h40.2c2.2,0,4-1.8,4-4S78.6,97,76.4,97z"/>
	<circle class="st0" cx="20.1" cy="68.8" r="4"/>
	<circle class="st0" cx="20.1" cy="84.9" r="4"/>
	<circle class="st0" cx="20.1" cy="101" r="4"/>
</g>
</svg>
