<?xml version="1.0" encoding="utf-8"?>
<!-- Generator: Adobe Illustrator 24.2.1, SVG Export Plug-In . SVG Version: 6.00 Build 0)  -->
<svg version="1.1" id="Layer_1" xmlns="http://www.w3.org/2000/svg" xmlns:xlink="http://www.w3.org/1999/xlink" x="0px" y="0px"
	 viewBox="0 0 104.5 137.4" style="enable-background:new 0 0 104.5 137.4;" xml:space="preserve">
<style type="text/css">
	.st0{fill:#E2DFEB;}
</style>
<path class="st0" d="M100.5,6H13c-2.2,0-4,1.8-4,4v28.1H4c-2.2,0-4,1.8-4,4s1.8,4,4,4h5v19.1H4c-2.2,0-4,1.8-4,4s1.8,4,4,4h5v19.1H4
	c-2.2,0-4,1.8-4,4s1.8,4,4,4h5v26.1c0,2.2,1.8,4,4,4h87.5c2.2,0,4-1.8,4-4V10C104.5,7.8,102.7,6,100.5,6z M96.5,122.3H17v-22.1h5
	c2.2,0,4-1.8,4-4s-1.8-4-4-4h-5V73.2h5c2.2,0,4-1.8,4-4s-1.8-4-4-4h-5V46.1h5c2.2,0,4-1.8,4-4s-1.8-4-4-4h-5V14h79.5L96.5,122.3
	L96.5,122.3z"/>
<path class="st0" d="M59.6,70.8c7.7,0,13.9-6.2,13.9-13.9c0-7.7-6.2-13.9-13.9-13.9c-7.7,0-13.9,6.2-13.9,13.9c0,0,0,0,0,0
	C45.8,64.6,52,70.8,59.6,70.8z M59.6,49.8c3.9,0,7.1,3.2,7.1,7.1S63.6,64,59.6,64s-7.1-3.2-7.1-7.1l0,0C52.5,53,55.7,49.8,59.6,49.8
	L59.6,49.8z"/>
<path class="st0" d="M44.2,96.1c1.9,0,3.4-1.5,3.4-3.4v-5.9c0-3.7,3.1-6.7,6.8-6.7H65c3.7,0,6.7,3,6.7,6.7v5.9
	c0,1.9,1.5,3.4,3.4,3.4s3.4-1.5,3.4-3.4v-5.9c0-7.4-6.1-13.4-13.5-13.5H54.3c-7.5,0-13.5,6-13.5,13.5v5.9
	C40.8,94.5,42.3,96.1,44.2,96.1z"/>
</svg>
