<?xml version="1.0" encoding="utf-8"?>
<!-- Generator: Adobe Illustrator 24.2.1, SVG Export Plug-In . SVG Version: 6.00 Build 0)  -->
<svg version="1.1" id="Layer_1" xmlns="http://www.w3.org/2000/svg" xmlns:xlink="http://www.w3.org/1999/xlink" x="0px" y="0px"
	 viewBox="0 0 552 552" style="enable-background:new 0 0 552 552;" xml:space="preserve">
<style type="text/css">
	.st0{fill:none;stroke:#FFFFFF;stroke-width:40;stroke-miterlimit:10;}
	.st1{fill:none;stroke:#FFFFFF;stroke-width:20;stroke-miterlimit:10;}
	.st2{fill:#FFFFFF;}
</style>
<path class="st0" d="M91.3,20h369.4c39.4,0,71.3,31.9,71.3,71.3v369.4c0,39.4-31.9,71.3-71.3,71.3H91.3C51.9,532,20,500.1,20,460.7
	V91.3C20,51.9,51.9,20,91.3,20z"/>
<g>
	<g>
		<g>
			<rect x="176.7" y="223.5" class="st2" width="47.1" height="144.8"/>
		</g>
	</g>
	<g>
		<g>
			<path class="st2" d="M352.1,225.2c-0.5-0.2-1-0.3-1.5-0.5c-0.6-0.1-1.3-0.3-1.9-0.4c-2.5-0.5-5.2-0.9-8.4-0.9
				c-27.5,0-44.9,20-50.6,27.7v-27.7h-47.1v144.8h47.1v-79c0,0,35.6-49.6,50.6-13.2c0,32.5,0,92.1,0,92.1h47.1v-97.7
				C387.3,248.7,372.3,230.5,352.1,225.2z"/>
		</g>
	</g>
	<g>
		<g>
			<circle class="st2" cx="199.8" cy="180.8" r="23"/>
		</g>
	</g>
</g>
</svg>
