<?xml version="1.0" encoding="utf-8"?>
<!-- Generator: Adobe Illustrator 24.2.1, SVG Export Plug-In . SVG Version: 6.00 Build 0)  -->
<svg version="1.1" id="Layer_1" xmlns="http://www.w3.org/2000/svg" xmlns:xlink="http://www.w3.org/1999/xlink" x="0px" y="0px"
	 viewBox="0 0 138.5 138.5" style="enable-background:new 0 0 138.5 138.5;" xml:space="preserve">
<style type="text/css">
	.st0{fill:#FFFFFF;}
</style>
<g>
	<path class="st0" d="M96.5,9.7H42C24.2,9.7,9.7,24.2,9.7,42v54.6c0,17.8,14.4,32.2,32.2,32.2h54.6c17.8,0,32.2-14.4,32.2-32.2V42
		C128.8,24.2,114.3,9.7,96.5,9.7z M121.8,96.5c0,13.9-11.3,25.3-25.3,25.3H42c-13.9,0-25.3-11.3-25.3-25.3V42
		C16.7,28,28,16.7,42,16.7h54.6c13.9,0,25.3,11.3,25.3,25.3V96.5z"/>
	<path class="st0" d="M69.2,36.7c-18,0-32.6,14.6-32.6,32.6s14.6,32.6,32.6,32.6s32.6-14.6,32.6-32.6S87.2,36.7,69.2,36.7z
		 M69.2,94.8c-14.1,0-25.5-11.4-25.5-25.5c0-14.1,11.4-25.5,25.5-25.5c14.1-0.1,25.6,11.3,25.6,25.4S83.3,94.8,69.2,94.8z"/>
	<path class="st0" d="M102.5,25.1c-5.3,0-9.6,4.3-9.6,9.6s4.3,9.6,9.6,9.6c5.3,0,9.6-4.3,9.6-9.6S107.9,25.1,102.5,25.1z
		 M102.5,37.4c-1.5,0-2.7-1.2-2.7-2.7s1.2-2.7,2.7-2.7c1.5,0,2.7,1.2,2.7,2.7S104,37.4,102.5,37.4z"/>
</g>
</svg>
