<svg xmlns="http://www.w3.org/2000/svg" viewBox="0 0 140.02 141.3"><defs><style>.cls-1{fill:#fff;}</style></defs><g id="Layer_4" data-name="Layer 4"><path class="cls-1" d="M136.7,33.24H99.4V25A16.68,16.68,0,0,0,82.74,8.38H58.09A16.67,16.67,0,0,0,41.43,25v8.2H4.13A4.12,4.12,0,0,0,0,37.36v75a20.34,20.34,0,0,0,20.32,20.32H120.51a20.34,20.34,0,0,0,20.32-20.32V37.36A4.12,4.12,0,0,0,136.7,33.24ZM79.77,87.08a9.36,9.36,0,0,1-18.72,0V77.72H79.77ZM83.9,69.46h-27a4.13,4.13,0,0,0-4.13,4.13v7.49c-24-5.2-42-20.77-44.29-39.59H132.32C130,60.31,112,75.88,88,81.08V73.59a4.13,4.13,0,0,0-4.13-4.13ZM49.68,25a8.42,8.42,0,0,1,8.41-8.41H82.74A8.41,8.41,0,0,1,91.14,25v8.2H49.68V25Zm82.89,87.27a12.08,12.08,0,0,1-12.06,12.07H20.32A12.08,12.08,0,0,1,8.25,112.31V62.76A58,58,0,0,0,21.07,75.82,77.73,77.73,0,0,0,53,89.55a17.61,17.61,0,0,0,34.87,0,77.79,77.79,0,0,0,31.91-13.73,57.91,57.91,0,0,0,12.81-13.06Z"/></g></svg>