<?xml version="1.0" encoding="utf-8"?>
<!-- Generator: Adobe Illustrator 24.2.1, SVG Export Plug-In . SVG Version: 6.00 Build 0)  -->
<svg version="1.1" baseProfile="basic" xmlns="http://www.w3.org/2000/svg" xmlns:xlink="http://www.w3.org/1999/xlink" x="0px"
	 y="0px" viewBox="0 0 140.02 141.3" xml:space="preserve">
<style type="text/css">
	.st0{fill:none;stroke:#e2dfeb;stroke-width:8;stroke-miterlimit:10;}
	.st1{fill:none;stroke:#e2dfeb;stroke-width:8;stroke-linecap:round;stroke-miterlimit:10;}
	.st2{fill:#e2dfeb;}
	.st3{fill:none;stroke:#e2dfeb;stroke-width:6;stroke-linecap:round;stroke-miterlimit:10;}
</style>
<g id="SUBLIMINAPP">
</g>
<g id="LOGIN">
	<g>
		<path class="st0" d="M45.33,134.32c-10.35-2.05-23.25-6.71-31.57-10.05c-5.46-2.19-9.77-5.22-9.77-11.67V18.67
			C3.99,12.22,8.5,5.53,13.76,7c7.72,2.16,31.47,10.22,31.47,10.22c6.99,2.15,9.77,7,9.77,11.67v93.94
			C55,129.27,52.75,135.79,45.33,134.32z"/>
		<g>
			<line class="st1" x1="83.95" y1="70.68" x2="135.96" y2="70.68"/>
			<line class="st1" x1="114.02" y1="49.32" x2="136.03" y2="70.68"/>
			<line class="st1" x1="114.02" y1="92.04" x2="136.03" y2="70.68"/>
		</g>
		<g>
			<path class="st1" d="M11.31,6.79c0,0,45.75-0.18,61.28,0.44c3.6,0.14,10.71,1.44,11.15,9.28s0.2,36.17,0.2,36.17"/>
			<path class="st1" d="M55,120.72c7.06-0.07,13.42-0.18,17.59-0.35c3.6-0.14,10.71-1.44,11.15-9.28s0.2-22.43,0.2-22.43"/>
		</g>
	</g>
</g>
<g id="PORTFOLIO">
</g>
<g id="ARROW">
</g>
<g id="LINHA">
</g>
<g id="Layer_6">
</g>
</svg>
