<?xml version="1.0" encoding="utf-8"?>
<!-- Generator: Adobe Illustrator 24.2.1, SVG Export Plug-In . SVG Version: 6.00 Build 0)  -->
<svg version="1.1" id="Layer_1" xmlns="http://www.w3.org/2000/svg" xmlns:xlink="http://www.w3.org/1999/xlink" x="0px" y="0px"
	 viewBox="0 0 138.5 138.5" style="enable-background:new 0 0 138.5 138.5;" xml:space="preserve">
<style type="text/css">
	.st0{display:none;}
	.st1{display:inline;fill:#FFFFFF;}
	.st2{fill:#FFFFFF;}
	.st3{fill:#FFFFFF;stroke:#FFFFFF;stroke-miterlimit:10;}
</style>
<g class="st0">
	<path class="st1" d="M96.5,9.7H42C24.2,9.7,9.7,24.2,9.7,42v54.6c0,17.8,14.4,32.2,32.2,32.2h54.6c17.8,0,32.2-14.4,32.2-32.2V42
		C128.8,24.2,114.3,9.7,96.5,9.7z M121.8,96.5c0,13.9-11.3,25.3-25.3,25.3H42c-13.9,0-25.3-11.3-25.3-25.3V42
		C16.7,28,28,16.7,42,16.7h54.6c13.9,0,25.3,11.3,25.3,25.3L121.8,96.5L121.8,96.5z"/>
	<path class="st1" d="M69.2,36.7c-18,0-32.6,14.6-32.6,32.6s14.6,32.6,32.6,32.6s32.6-14.6,32.6-32.6S87.2,36.7,69.2,36.7z
		 M69.2,94.8c-14.1,0-25.5-11.4-25.5-25.5s11.4-25.5,25.5-25.5c14.1-0.1,25.6,11.3,25.6,25.4S83.3,94.8,69.2,94.8z"/>
	<path class="st1" d="M102.5,25.1c-5.3,0-9.6,4.3-9.6,9.6s4.3,9.6,9.6,9.6c5.3,0,9.6-4.3,9.6-9.6S107.9,25.1,102.5,25.1z
		 M102.5,37.4c-1.5,0-2.7-1.2-2.7-2.7s1.2-2.7,2.7-2.7s2.7,1.2,2.7,2.7S104,37.4,102.5,37.4z"/>
</g>
<g>
	<path class="st2" d="M63.6,93.9c1-1,1-2.7,0-3.9c-1-1-2.7-1-3.9,0c-1,1-1,2.7,0,3.9C60.9,95,62.6,95,63.6,93.9z"/>
	<path class="st3" d="M50.8,29.8c0,16.4,13.4,29.8,29.8,29.8s29.8-13.4,29.8-29.8S97,0,80.6,0S50.8,13.4,50.8,29.8z M105,29.8
		c0,13.4-10.9,24.3-24.3,24.3S56.3,43.3,56.3,29.8c0-13.4,10.9-24.3,24.3-24.3S105,16.3,105,29.8z"/>
	<path class="st3" d="M31.1,137.7c1,1,2.7,1,3.9,0l13.1-12.9c2.3-2.3,2.9-5.5,1.9-8.4l2.8-2.7c1.5-1.5,3.5-2.3,5.7-2.3h35.9
		c6.3,0,12.5-2.5,17-6.9c0.2-0.2-1.5,1.7,24.6-29.3c3.9-4.5,3.3-11.4-1.2-15.3c-4.5-3.9-11.3-3.3-15.2,1.2l-16.1,16.4
		c-2-2.5-5.1-4.1-8.4-4.1H65c-4.3-1.8-8.8-2.7-13.6-2.7c-13,0.1-24.3,6.1-30.5,17.3c-2.6-0.5-5.3,0.3-7.2,2.3L0.8,103.3
		c-1,1-1,2.7,0,3.9L31.1,137.7z M51.4,76.2c4.2,0,8.2,0.8,11.9,2.5c0.3,0.1,0.7,0.2,1.1,0.2h30.7c2.9,0,5.4,2.4,5.4,5.4
		c0,2.9-2.4,5.4-5.4,5.4H73c-1.5,0-2.7,1.2-2.7,2.7s1.2,2.7,2.7,2.7h22.1c6,0,10.8-4.9,10.8-10.8c0-0.5,0-0.9-0.1-1.4
		c15.4-15.9,17.6-18.1,17.7-18.2c1.9-2.3,5.3-2.6,7.6-0.7c2.3,1.9,2.6,5.3,0.7,7.6l-24.2,28.9c-3.5,3.4-8.2,5.3-13.1,5.3H58.4
		c-3.5,0-6.9,1.4-9.4,3.7l-2.3,2.3L25.6,90.8C30.6,81.5,39.9,76.2,51.4,76.2z M17.5,94.2c0.9-0.9,2.3-1,3.4-0.3
		c0.5,0.3-0.9-0.9,23.4,23.3c1.1,1.1,1,2.8,0,3.9l-11.2,11L6.6,105.2L17.5,94.2z"/>
	<path class="st3" d="M77.3,13.6v3.2c-3.2,1.1-5.4,4.1-5.4,7.7c0,4.4,3.6,8.2,8.2,8.2c1.5,0,2.7,1.2,2.7,2.7c0,1.5-1.2,2.7-2.7,2.7
		c-1.1,0-2.4-0.7-3.5-2c-0.9-1.1-2.7-1.2-3.9-0.3c-1.1,0.9-1.2,2.7-0.3,3.9c1.5,1.7,3.2,2.9,5,3.5v3.2c0,1.5,1.2,2.7,2.7,2.7
		c1.5,0,2.7-1.2,2.7-2.7V43c3.2-1.1,5.4-4.1,5.4-7.7c0-4.4-3.6-8.2-8.2-8.2c-1.5,0-2.7-1.2-2.7-2.7c0-1.5,1.2-2.7,2.7-2.7
		c0.9,0,1.9,0.5,2.9,1.4c1,1,2.8,1,3.9-0.1c1-1,1-2.8-0.1-3.9c-1.4-1.4-2.7-2-4-2.5v-3.2c0-1.5-1.2-2.7-2.7-2.7
		C78.6,10.9,77.3,12,77.3,13.6z"/>
</g>
</svg>
