<svg xmlns="http://www.w3.org/2000/svg" viewBox="0 0 140.02 141.3"><defs><style>.cls-1,.cls-2{fill:none;stroke:#fff;stroke-miterlimit:10;stroke-width:8px;}.cls-2{stroke-linecap:round;}</style></defs><g id="Layer_2" data-name="Layer 2"><path class="cls-1" d="M45.33,137C35,134.9,22.08,130,13.76,126.56,8.3,124.28,4,121.11,4,114.39v-98C4,9.66,8.5,2.68,13.76,4.21c7.72,2.26,31.47,10.66,31.47,10.66C52.22,17.12,55,22.18,55,27v98C55,131.77,52.75,138.58,45.33,137Z"/><line class="cls-2" x1="83.95" y1="70.65" x2="135.96" y2="70.65"/><line class="cls-2" x1="114.02" y1="48.37" x2="136.03" y2="70.65"/><line class="cls-2" x1="114.02" y1="92.93" x2="136.03" y2="70.65"/><path class="cls-2" d="M11.31,4s45.75-.19,61.28.46c3.6.15,10.71,1.5,11.15,9.68s.2,37.73.2,37.73"/><path class="cls-2" d="M55,122.85c7.07-.07,13.42-.18,17.59-.36,3.6-.15,10.71-1.5,11.15-9.68s.2-23.4.2-23.4"/></g></svg>