<svg id="Layer_1" data-name="Layer 1" xmlns="http://www.w3.org/2000/svg" viewBox="0 0 105.11 137.29"><defs><style>.cls-1{fill:#e2dfeb;stroke:#e2dfeb;stroke-miterlimit:10;}</style></defs><path class="cls-1" d="M12.15,136.79A11.67,11.67,0,0,1,.5,125.14V23A11.67,11.67,0,0,1,12.15,11.3H27.56V3.92A3.42,3.42,0,0,1,31,.5H74.13a3.42,3.42,0,0,1,3.42,3.42V11.3H93A11.66,11.66,0,0,1,104.61,23V125.14A11.66,11.66,0,0,1,93,136.79Zm0-118.64A4.81,4.81,0,0,0,7.35,23V125.14a4.8,4.8,0,0,0,4.8,4.8H93a4.8,4.8,0,0,0,4.8-4.8V23A4.81,4.81,0,0,0,93,18.15H77.55v7.38A3.43,3.43,0,0,1,74.13,29H31a3.43,3.43,0,0,1-3.42-3.43V18.15Zm22.26,4H70.7V7.35H34.41Zm10.9,76.5a3.41,3.41,0,0,1-2.43-1L28.56,83.28a3.44,3.44,0,0,1,0-4.85,3.44,3.44,0,0,1,2.42-1,3.4,3.4,0,0,1,2.42,1L45.31,90.34l26.4-26.4a3.37,3.37,0,0,1,2.42-1,3.41,3.41,0,0,1,2.42,1,3.36,3.36,0,0,1,1,2.42,3.4,3.4,0,0,1-1,2.42L47.73,97.6A3.41,3.41,0,0,1,45.31,98.61Z"/></svg>