<?xml version="1.0" encoding="utf-8"?>
<!-- Generator: Adobe Illustrator 24.2.1, SVG Export Plug-In . SVG Version: 6.00 Build 0)  -->
<svg version="1.1" id="Layer_1" xmlns="http://www.w3.org/2000/svg" xmlns:xlink="http://www.w3.org/1999/xlink" x="0px" y="0px"
	 viewBox="0 0 21.3 452.2" style="enable-background:new 0 0 21.3 452.2;" xml:space="preserve">
<style type="text/css">
	.st0{fill:#bfbccd;}
</style>
<g>
	<path class="st0" d="M10.2,158.7v5.1h6.6v1.2h-16v-6.3c0-2.6,2.1-4.7,4.7-4.7c2.2,0,4,1.5,4.6,3.5l6.7-4v1.4L10.2,158.7z
		 M9.1,163.7v-5.1c0-1.9-1.6-3.5-3.6-3.5s-3.6,1.6-3.6,3.5v5.1H9.1z"/>
	<path class="st0" d="M11,152.5c-3.4,0-6-2.7-6-6s2.6-6,6-6s6,2.7,6,6S14.4,152.5,11,152.5z M11,141.6c-2.7,0-4.9,2.1-4.9,4.8
		s2.2,4.9,4.9,4.9s4.9-2.1,4.9-4.9C15.9,143.7,13.8,141.6,11,141.6z"/>
	<path class="st0" d="M0,137.7v-1.1h16.7v1.1H0z"/>
	<path class="st0" d="M11.1,122.2c0.2,0,0.4,0,0.5,0v10.4c2.6-0.3,4.3-2.2,4.3-4.9c0-1.9-0.9-3.3-2.1-4l0.6-1c1.6,0.9,2.6,2.7,2.6,5
		c0,3.5-2.5,6-6,6c-3.4,0-6-2.4-6-5.9C5.1,124.4,8,122.2,11.1,122.2z M10.5,132.6v-9.2c-2.8,0.3-4.4,2.2-4.4,4.5
		C6.2,130.5,8,132.4,10.5,132.6z"/>
	<path class="st0" d="M11,101.4c3.4,0,6,2.7,6,5.9c0,2.2-1.1,4-2.9,4.9h7.2v1.1h-16v-1.1H8c-1.8-0.9-2.9-2.7-2.9-4.9
		C5.1,104.1,7.7,101.4,11,101.4z M11,102.6c-2.7,0-4.9,2.1-4.9,4.9c0,2.7,2.2,4.9,4.9,4.9s4.9-2.1,4.9-4.9S13.8,102.6,11,102.6z"/>
	<path class="st0" d="M5.3,87.4h11.5v1.2h-2.6c1.7,1,2.8,2.7,2.8,4.9c0,3.3-2.6,5.9-6,5.9s-6-2.7-6-5.9c0-2.2,1.1-4,2.8-4.9H5.3
		V87.4z M11,88.6c-2.7,0-4.9,2.1-4.9,4.8c0,2.7,2.2,4.9,4.9,4.9s4.9-2.1,4.9-4.9C15.9,90.7,13.8,88.6,11,88.6z"/>
	<path class="st0" d="M5.2,78.9h1.1c0,2,1.2,3.8,4.1,3.8h6.4v1.1H5.3v-1.1h2.2C5.8,81.9,5.2,80.4,5.2,78.9z"/>
	<path class="st0" d="M5.3,66h11.5v1.2h-2.6c1.7,1,2.8,2.7,2.8,4.9c0,3.3-2.6,5.9-6,5.9s-6-2.7-6-5.9c0-2.2,1.1-4,2.8-4.9H5.3V66z
		 M11,67.2c-2.7,0-4.9,2.1-4.9,4.8c0,2.7,2.2,4.9,4.9,4.9s4.9-2.1,4.9-4.9C15.9,69.3,13.8,67.2,11,67.2z"/>
	<path class="st0" d="M11,44.4c3.4,0,6,2.7,6,5.9c0,2.2-1.1,4-2.9,4.9h2.7v1.1h-16v-1.1H8c-1.8-0.9-2.9-2.7-2.9-4.9
		C5.1,47,7.7,44.4,11,44.4z M11,45.5c-2.7,0-4.9,2.1-4.9,4.9c0,2.7,2.2,4.9,4.9,4.9s4.9-2.1,4.9-4.9S13.8,45.5,11,45.5z"/>
	<path class="st0" d="M5.3,30.3h11.5v1.2h-2.6c1.7,1,2.8,2.7,2.8,4.9c0,3.3-2.6,5.9-6,5.9s-6-2.7-6-5.9c0-2.2,1.1-4,2.8-4.9H5.3
		V30.3z M11,31.5c-2.7,0-4.9,2.1-4.9,4.8s2.2,4.9,4.9,4.9s4.9-2.1,4.9-4.9C15.9,33.6,13.8,31.5,11,31.5z"/>
	<path class="st0" d="M1.6,27.2c-0.5,0-0.9-0.4-0.9-0.9s0.4-0.9,0.9-0.9s0.9,0.4,0.9,0.9C2.5,26.7,2.1,27.2,1.6,27.2z M5.3,26.8
		v-1.1h11.5v1.1H5.3z"/>
	<path class="st0" d="M16.8,14.2l-5,3.9l5,3.9v1.4l-5.9-4.6l-5.6,4.3v-1.4l4.7-3.6l-4.7-3.6v-1.4l5.5,4.3l5.9-4.6L16.8,14.2
		C16.7,14.2,16.8,14.2,16.8,14.2z"/>
	<path class="st0" d="M11,12c-3.4,0-6-2.7-6-6s2.6-6,6-6s6,2.7,6,6S14.4,12,11,12z M11,1.1C8.3,1.1,6.2,3.3,6.2,6s2.2,4.9,4.9,4.9
		S16,8.8,16,6C15.9,3.3,13.8,1.1,11,1.1z"/>
</g>
<rect x="9.1" y="191.9" class="st0" width="1.5" height="206.1"/>
</svg>
