<?xml version="1.0" encoding="utf-8"?>
<!-- Generator: Adobe Illustrator 24.2.1, SVG Export Plug-In . SVG Version: 6.00 Build 0)  -->
<svg version="1.1" id="Layer_1" xmlns="http://www.w3.org/2000/svg" xmlns:xlink="http://www.w3.org/1999/xlink" x="0px" y="0px"
	 viewBox="0 0 25.3 328.2" style="enable-background:new 0 0 25.3 328.2;" xml:space="preserve">
<style type="text/css">
	.st0{fill:#bfbccd;}
</style>
<g>
	<path class="st0" d="M18.5,316.8h1.2v9.3H3.5v-9.2h1.2v8h6.3v-7.4h1.2v7.4h6.4V316.8z"/>
	<path class="st0" d="M13.9,315.1c-3.4,0-6-2.6-6-6.1c0-2.3,1.2-4.2,3-5.1l0.6,1C9.9,305.5,9,307.1,9,309c0,2.8,2.2,4.9,4.9,4.9
		s4.9-2.1,4.9-4.9c0-1.9-1-3.4-2.4-4.2l0.6-1c1.8,0.9,2.9,2.9,2.9,5.1C20,312.5,17.3,315.1,13.9,315.1z"/>
	<path class="st0" d="M12.5,291.5h7.2v1.2h-7.2c-2.1,0-3.5,1.2-3.5,3.4c0,2.3,1.5,4.1,4.6,4.1h6.1v1.2H3.5v-1.2h6.8
		c-1.7-0.9-2.5-2.4-2.5-4.1C7.9,293.2,9.7,291.5,12.5,291.5z"/>
	<path class="st0" d="M13.9,289c-3.4,0-6-2.7-6-6.1c0-3.4,2.6-6.1,6-6.1c3.4,0,6,2.7,6,6.1C20,286.3,17.3,289,13.9,289z M13.9,278
		c-2.8,0-4.9,2.1-4.9,4.9s2.2,4.9,4.9,4.9s4.9-2.2,4.9-4.9S16.7,278,13.9,278z"/>
	<path class="st0" d="M3.5,264v-1.1l4.8,0.9v1.4L3.5,264z M3.5,266.9v-1.1l4.8,0.9v1.4L3.5,266.9z"/>
	<path class="st0" d="M11.6,261.3c-4.6,0-8.4-3.7-8.4-8.4c0-4.7,3.7-8.4,8.4-8.4s8.4,3.7,8.4,8.4C20,257.6,16.2,261.3,11.6,261.3z
		 M11.6,245.8c-4,0-7.2,3.1-7.2,7.1s3.2,7.1,7.2,7.1c4,0,7.2-3.1,7.2-7.1S15.6,245.8,11.6,245.8z"/>
	<path class="st0" d="M2.8,241.7v-1.2h16.9v1.2H2.8z"/>
	<path class="st0" d="M6.5,231.5v1.1l-2.9-1.9v-1.4L6.5,231.5z M8.1,225.6h11.6v1.2h-2.6c1.7,1,2.9,2.8,2.9,5c0,3.3-2.6,6-6,6
		c-3.4,0-6-2.7-6-6c0-2.2,1.1-4,2.9-5H8.1V225.6z M13.9,226.8c-2.8,0-4.9,2.1-4.9,4.9s2.2,4.9,4.9,4.9s4.9-2.2,4.9-4.9
		S16.7,226.8,13.9,226.8z"/>
	<path class="st0" d="M8.1,222H3.5v-1.4h4.6l7.4,0.2v0.9L8.1,222z M18.9,222.3c-0.6,0-1-0.5-1-1s0.5-1,1-1s1,0.5,1,1
		S19.5,222.3,18.9,222.3z"/>
	<path class="st0" d="M16.1,211.5l-0.6-1.1c1.9-0.6,3.3-2.2,3.3-4.9c0-2.7-1.4-4.1-3.2-4.1c-1.9,0-2.7,1.7-3.5,4.2
		c-0.9,2.7-1.6,5.1-4.5,5.1c-2.7,0-4.4-2.2-4.4-4.9c0-2.7,1.5-4.4,3.4-5.2l0.6,1c-1.5,0.6-2.8,1.9-2.8,4.2c0,2.2,1.3,3.7,3.1,3.7
		c1.9,0,2.5-1.6,3.3-4c1-2.9,1.9-5.4,4.7-5.4c2.7,0,4.5,2.1,4.5,5.3C20,208.6,18.4,210.7,16.1,211.5z"/>
	<path class="st0" d="M14,186.2c0.2,0,0.4,0,0.6,0v10.5c2.6-0.3,4.3-2.3,4.3-4.9c0-1.9-0.9-3.3-2.1-4l0.6-1c1.6,1,2.6,2.8,2.6,5.1
		c0,3.6-2.5,6.1-6,6.1c-3.4,0-6-2.5-6-6C7.9,188.4,10.8,186.2,14,186.2z M13.4,196.7v-9.3c-2.8,0.3-4.4,2.2-4.4,4.5
		C9,194.5,10.8,196.5,13.4,196.7z"/>
	<path class="st0" d="M4.4,181.6c0.5,0,0.9,0.4,0.9,0.9s-0.4,0.9-0.9,0.9c-0.5,0-0.9-0.4-0.9-0.9S3.9,181.6,4.4,181.6z M8.1,183.1
		V182H21c2.5,0,3.8,1.3,3.6,3.8h-1.1c0.2-1.8-0.6-2.7-2.5-2.7H8.1z"/>
	<path class="st0" d="M8.1,167h11.6v1.2h-2.6c1.7,1,2.9,2.8,2.9,5c0,3.3-2.6,6-6,6c-3.4,0-6-2.7-6-6c0-2.2,1.1-4,2.9-5H8.1V167z
		 M13.9,168.2c-2.8,0-4.9,2.1-4.9,4.9c0,2.8,2.2,4.9,4.9,4.9s4.9-2.2,4.9-4.9C18.8,170.3,16.7,168.2,13.9,168.2z"/>
	<path class="st0" d="M13.9,145.1c3.4,0,6,2.7,6,6c0,2.2-1.2,4-2.9,5h2.7v1.2H3.5v-1.2h7.3c-1.8-1-2.9-2.7-2.9-5
		C7.9,147.8,10.5,145.1,13.9,145.1z M13.9,146.3c-2.8,0-4.9,2.2-4.9,4.9s2.2,4.9,4.9,4.9s4.9-2.2,4.9-4.9S16.7,146.3,13.9,146.3z"/>
	<path class="st0" d="M14,131.4c0.2,0,0.4,0,0.6,0v10.5c2.6-0.3,4.3-2.3,4.3-4.9c0-1.9-0.9-3.3-2.1-4l0.6-1c1.6,1,2.6,2.8,2.6,5.1
		c0,3.6-2.5,6.1-6,6.1c-3.4,0-6-2.5-6-6C7.9,133.6,10.8,131.4,14,131.4z M13.4,141.9v-9.3c-2.8,0.3-4.4,2.2-4.4,4.5
		C9,139.7,10.8,141.7,13.4,141.9z"/>
	<path class="st0" d="M12.4,112.1h7.3v1.2h-7.3c-2.2,0-3.4,1.3-3.4,3.1c0,1.9,1.3,3.5,4.3,3.5h6.5v1.2h-7.3c-2.2,0-3.4,1.2-3.4,3
		c0,1.9,1.3,3.6,4.3,3.6h6.5v1.2H8.1v-1.2h2c-1.6-0.9-2.2-2.2-2.2-3.7c0-1.7,0.8-3,2.4-3.6c-1.6-0.8-2.4-2.3-2.4-3.9
		C7.9,113.8,9.5,112.1,12.4,112.1z"/>
	<path class="st0" d="M8.1,92.9l11.6,4.9v1.4l-11.6,4.9v-1.3l10.4-4.4L8.1,94.1V92.9z"/>
	<path class="st0" d="M4.4,91.1c-0.5,0-0.9-0.4-0.9-0.9s0.4-0.9,0.9-0.9c0.5,0,0.9,0.4,0.9,0.9S4.9,91.1,4.4,91.1z M8.1,90.7v-1.2
		h11.6v1.2H8.1z"/>
	<path class="st0" d="M12.5,76.2h7.2v1.2h-7.2c-2.1,0-3.5,1.2-3.5,3.4c0,2.3,1.5,4.1,4.6,4.1h6.1V86H8.1v-1.2h2.2
		c-1.7-0.9-2.5-2.4-2.5-4.1C7.9,77.9,9.7,76.2,12.5,76.2z"/>
	<path class="st0" d="M3.5,61.6h16.2v1.2H17c1.8,1,2.9,2.7,2.9,5c0,3.3-2.6,6-6,6c-3.4,0-6-2.7-6-6c0-2.2,1.2-4,2.9-5H3.5V61.6z
		 M13.9,62.7c-2.8,0-4.9,2.2-4.9,4.9c0,2.8,2.2,4.9,4.9,4.9s4.9-2.2,4.9-4.9C18.8,64.9,16.7,62.7,13.9,62.7z"/>
	<path class="st0" d="M13.9,58.8c-3.4,0-6-2.7-6-6.1c0-3.4,2.6-6.1,6-6.1c3.4,0,6,2.7,6,6.1C20,56.1,17.3,58.8,13.9,58.8z
		 M13.9,47.8c-2.8,0-4.9,2.1-4.9,4.9c0,2.8,2.2,4.9,4.9,4.9s4.9-2.2,4.9-4.9C18.8,49.9,16.7,47.8,13.9,47.8z"/>
	<path class="st0" d="M11.6,44.2c-3.7,0-7.2-0.9-10.4-2.5v-1.2C4.4,42.1,7.9,43,11.6,43c3.7,0,7.2-0.9,10.4-2.5v1.2
		C18.8,43.3,15.3,44.2,11.6,44.2z"/>
	<path class="st0" d="M8.1,26.4h11.6v1.2h-2.6c1.7,1,2.9,2.8,2.9,5c0,3.3-2.6,6-6,6c-3.4,0-6-2.7-6-6c0-2.2,1.1-4,2.9-5H8.1V26.4z
		 M13.9,27.6c-2.8,0-4.9,2.1-4.9,4.9c0,2.8,2.2,4.9,4.9,4.9s4.9-2.2,4.9-4.9C18.8,29.7,16.7,27.6,13.9,27.6z"/>
	<path class="st0" d="M22,23.7c-3.2-1.6-6.7-2.5-10.4-2.5c-3.7,0-7.2,0.9-10.4,2.5v-1.2c3.2-1.6,6.7-2.5,10.4-2.5
		c3.7,0,7.2,0.9,10.4,2.5V23.7z"/>
	<path class="st0" d="M8.1,16.7H3.5v-1.4h4.6l7.4,0.2v0.9L8.1,16.7z M18.9,17c-0.6,0-1-0.5-1-1c0-0.6,0.5-1,1-1s1,0.5,1,1
		C19.9,16.6,19.5,17,18.9,17z"/>
	<path class="st0" d="M8.3,8v1.1L3.5,8.2V6.7L8.3,8z M8.3,10.9V12l-4.8-0.9V9.7L8.3,10.9z"/>
	<path class="st0" d="M9.2,3.5c-0.6,0-1-0.4-1-1c0-0.6,0.5-1,1-1c0.6,0,1,0.5,1,1C10.2,3.1,9.7,3.5,9.2,3.5z M23,2.8v1.1L18.1,3V1.6
		L23,2.8z"/>
</g>
</svg>
