<?xml version="1.0" encoding="utf-8"?>
<!-- Generator: Adobe Illustrator 25.2.3, SVG Export Plug-In . SVG Version: 6.00 Build 0)  -->
<svg version="1.1" xmlns="http://www.w3.org/2000/svg" xmlns:xlink="http://www.w3.org/1999/xlink" x="0px" y="0px"
	 viewBox="0 0 910 319.3" style="enable-background:new 0 0 910 319.3;" xml:space="preserve">
<style type="text/css">
	.st0{fill:#E2DFEB;}
	.st1{font-family:'Quicksand-Regular';}
	.st2{font-size:40.4823px;}
	.st3{display:none;}
</style>
<g id="Layer_1">
	<g>
		<g>
			<path class="st0" d="M303.7,93.2h-20.6V40.8L259.8,79h-2.3l-23.3-38.2v52.4h-20.6V3.1h20.6l24.4,40l24.4-40h20.6v90.1H303.7z"/>
			<path class="st0" d="M384.5,28.8v64.3h-19.3v-6C361,92,354.6,95,346,95c-16.9,0-30.8-14.8-30.8-34s13.9-34,30.8-34
				c8.6,0,14.9,3,19.2,7.8v-6H384.5z M365.2,61c0-9.7-6.4-15.7-15.3-15.7s-15.3,6-15.3,15.7s6.4,15.7,15.3,15.7
				C358.8,76.7,365.2,70.6,365.2,61z"/>
			<path class="st0" d="M437.3,27.5v21.9c-8-1.3-19.3,1.9-19.3,14.7v29.1h-19.3V28.8H418v11.5C420.5,31.7,429.1,27.5,437.3,27.5z"/>
			<path class="st0" d="M444.3,11.6c0-6.3,5.3-11.6,11.6-11.6s11.6,5.3,11.6,11.6s-5.3,11.6-11.6,11.6S444.3,17.9,444.3,11.6z
				 M446.3,28.8h19.3v64.3h-19.3V28.8z"/>
			<path class="st0" d="M545.7,28.8v64.3h-19.3v-6c-4.2,4.9-10.6,7.8-19.2,7.8c-16.9,0-30.8-14.8-30.8-34s13.9-34,30.8-34
				c8.6,0,14.9,3,19.2,7.8v-6L545.7,28.8L545.7,28.8z M526.4,61c0-9.7-6.4-15.7-15.3-15.7s-15.3,6-15.3,15.7s6.4,15.7,15.3,15.7
				C520,76.7,526.4,70.6,526.4,61z"/>
			<path class="st0" d="M621.6,53.7v39.5h-19.3V56.5c0-8-5-11.7-11.2-11.7c-7.1,0-12,4.1-12,13.3v35.1h-19.3V28.8h19.3v6
				c3.5-4.8,9.9-7.8,18.4-7.8C610.6,27,621.6,36.3,621.6,53.7z"/>
			<path class="st0" d="M700.9,28.8v64.3h-19.3v-6c-4.2,4.9-10.6,7.8-19.2,7.8c-16.9,0-30.8-14.8-30.8-34s13.9-34,30.8-34
				c8.6,0,14.9,3,19.2,7.8v-6L700.9,28.8L700.9,28.8z M681.6,61c0-9.7-6.4-15.7-15.3-15.7S651,51.3,651,61s6.4,15.7,15.3,15.7
				S681.6,70.6,681.6,61z"/>
		</g>
		<text transform="matrix(1.011 0 0 1 259.3816 309.7)" class="st0 st1 st2">Front-End Developer</text>
	</g>
	<g>
		<g>
			<path class="st0" d="M110.6,192.4h-9.8V222H80.2v-90.1h36c17.1,0,30.9,13.8,30.9,30.9c0,11.1-6.7,21.1-16.6,26.1l19.2,33.1h-22.1
				L110.6,192.4z M100.8,174.3h15.5c5.7,0,10.3-5,10.3-11.6s-4.6-11.6-10.3-11.6h-15.4L100.8,174.3L100.8,174.3L100.8,174.3z"/>
			<path class="st0" d="M221.5,157.6v64.3h-19.3v-6c-4.2,4.9-10.6,7.8-19.2,7.8c-16.9,0-30.8-14.8-30.8-34s13.9-34,30.8-34
				c8.6,0,14.9,3,19.2,7.8v-6L221.5,157.6L221.5,157.6z M202.2,189.8c0-9.7-6.4-15.7-15.3-15.7s-15.3,6-15.3,15.7
				s6.4,15.7,15.3,15.7S202.2,199.4,202.2,189.8z"/>
			<path class="st0" d="M332.2,182.4v39.5h-19.3v-37.8c0-6.4-3.1-10.6-9.3-10.6c-6.4,0-10,4.5-10,12.1v36.3h-19.3v-37.8
				c0-6.4-3.1-10.6-9.3-10.6c-6.4,0-10,4.5-10,12.1v36.3h-19.3v-64.3H255v5.9c3-4.4,8.6-7.7,17.2-7.7c7.6,0,13.3,3.1,16.9,8.5
				c3.6-5.1,9.5-8.5,18.7-8.5C322.5,155.8,332.2,166.4,332.2,182.4z"/>
			<path class="st0" d="M411.5,157.6v64.3h-19.3v-6c-4.2,4.9-10.6,7.8-19.2,7.8c-16.9,0-30.8-14.8-30.8-34s13.9-34,30.8-34
				c8.6,0,14.9,3,19.2,7.8v-6L411.5,157.6L411.5,157.6z M392.2,189.8c0-9.7-6.4-15.7-15.3-15.7s-15.3,6-15.3,15.7
				s6.4,15.7,15.3,15.7C385.7,205.5,392.2,199.4,392.2,189.8z"/>
			<path class="st0" d="M422.4,189.8c0-19.2,14.5-34,34.1-34c12.5,0,23.5,6.6,29.1,16.5l-16.9,9.8c-2.2-4.5-6.8-7.2-12.5-7.2
				c-8.4,0-14.5,6-14.5,14.9s6.2,14.9,14.5,14.9c5.7,0,10.4-2.7,12.5-7.2l16.9,9.7c-5.5,10-16.5,16.6-29.1,16.6
				C436.9,223.7,422.4,209,422.4,189.8z"/>
			<path class="st0" d="M488.8,189.8c0-19.2,14.5-34,34.1-34c12.5,0,23.5,6.6,29.1,16.5l-16.9,9.8c-2.2-4.5-6.8-7.2-12.5-7.2
				c-8.4,0-14.5,6-14.5,14.9s6.2,14.9,14.5,14.9c5.7,0,10.4-2.7,12.5-7.2l16.9,9.7c-5.5,10-16.5,16.6-29.1,16.6
				C503.3,223.7,488.8,209,488.8,189.8z"/>
			<path class="st0" d="M557.8,140.4c0-6.3,5.3-11.6,11.6-11.6s11.6,5.3,11.6,11.6s-5.3,11.6-11.6,11.6
				C563,151.9,557.8,146.7,557.8,140.4z M559.7,157.6H579v64.3h-19.3V157.6z"/>
			<path class="st0" d="M589.9,189.8c0-19.2,15.2-34,34.1-34c18.9,0,34.1,14.8,34.1,34s-15.2,34-34.1,34
				C605.1,223.7,589.9,209,589.9,189.8z M638.8,189.8c0-9.1-6.4-15.2-14.8-15.2c-8.4,0-14.8,6-14.8,15.2S615.6,205,624,205
				S638.8,198.9,638.8,189.8z"/>
			<path class="st0" d="M692.2,176.1v22.8c0,5.5,4.8,6,13.3,5.5v17.5c-25.2,2.6-32.6-5-32.6-23v-22.8h-10.3v-18.5h10.3v-12.2
				l19.3-5.8v18h13.3v18.5H692.2z"/>
			<path class="st0" d="M738.9,176.1v22.8c0,5.5,4.8,6,13.3,5.5v17.5c-25.2,2.6-32.6-5-32.6-23v-22.8h-10.3v-18.5h10.3v-12.2
				l19.3-5.8v18h13.3v18.5H738.9z"/>
			<path class="st0" d="M761.2,140.4c0-6.3,5.3-11.6,11.6-11.6s11.6,5.3,11.6,11.6s-5.3,11.6-11.6,11.6
				C766.5,151.9,761.2,146.7,761.2,140.4z M763.1,157.6h19.3v64.3h-19.3V157.6z"/>
		</g>
		<polygon class="st0" points="30.9,210.2 0,179.3 30.9,148.3 35.2,152.6 8.5,179.3 35.2,206 		"/>
		<polygon class="st0" points="879,211.2 874.8,206.9 901.5,180.3 874.8,153.6 879,149.3 910,180.3 		"/>
		
			<rect x="801.9" y="171.7" transform="matrix(0.4592 -0.8883 0.8883 0.4592 300.2779 842.5862)" class="st0" width="80.6" height="6"/>
	</g>
</g>
<g id="Camada_2" class="st3">
	<text transform="matrix(1.011 0 0 1 272.4502 388.6346)" class="st1 st2" style="display:inline;fill:#E2DFEB;">Front-End Developer</text>
</g>
</svg>
