<?xml version="1.0" encoding="utf-8"?>
<!-- Generator: Adobe Illustrator 24.2.1, SVG Export Plug-In . SVG Version: 6.00 Build 0)  -->
<svg version="1.1" id="Layer_1" xmlns="http://www.w3.org/2000/svg" xmlns:xlink="http://www.w3.org/1999/xlink" x="0px" y="0px"
	 viewBox="0 0 910 319.3" style="enable-background:new 0 0 910 319.3;" xml:space="preserve">
<style type="text/css">
	.st0{fill:#e2dfeb;}
</style>
<g>
	<path class="st0" d="M278.7,93.2h-20.6V40.8L234.8,79h-2.3l-23.3-38.2v52.4h-20.6V3.1h20.6l24.4,40l24.4-40h20.6v90.1H278.7z"/>
	<path class="st0" d="M359.5,28.8v64.3h-19.3v-6C336,92,329.6,95,321,95c-16.9,0-30.8-14.8-30.8-34s13.9-34,30.8-34
		c8.6,0,14.9,3,19.2,7.8v-6H359.5z M340.2,61c0-9.7-6.4-15.7-15.3-15.7c-8.9,0-15.3,6-15.3,15.7s6.4,15.7,15.3,15.7
		C333.8,76.7,340.2,70.6,340.2,61z"/>
	<path class="st0" d="M412.3,27.5v21.9c-8-1.3-19.3,1.9-19.3,14.7v29.1h-19.3V28.8H393v11.5C395.5,31.7,404.1,27.5,412.3,27.5z"/>
	<path class="st0" d="M419.3,11.6c0-6.3,5.3-11.6,11.6-11.6s11.6,5.3,11.6,11.6s-5.3,11.6-11.6,11.6S419.3,17.9,419.3,11.6z
		 M421.3,28.8h19.3v64.3h-19.3V28.8z"/>
	<path class="st0" d="M520.7,28.8v64.3h-19.3v-6c-4.2,4.9-10.6,7.8-19.2,7.8c-16.9,0-30.8-14.8-30.8-34s13.9-34,30.8-34
		c8.6,0,14.9,3,19.2,7.8v-6L520.7,28.8L520.7,28.8z M501.4,61c0-9.7-6.4-15.7-15.3-15.7s-15.3,6-15.3,15.7s6.4,15.7,15.3,15.7
		S501.4,70.6,501.4,61z"/>
	<path class="st0" d="M596.6,53.7v39.5h-19.3V56.5c0-8-5-11.7-11.2-11.7c-7.1,0-12,4.1-12,13.3v35.1h-19.3V28.8h19.3v6
		c3.5-4.8,9.9-7.8,18.4-7.8C585.6,27,596.6,36.3,596.6,53.7z"/>
	<path class="st0" d="M675.9,28.8v64.3h-19.3v-6c-4.2,4.9-10.6,7.8-19.2,7.8c-16.9,0-30.8-14.8-30.8-34s13.9-34,30.8-34
		c8.6,0,14.9,3,19.2,7.8v-6L675.9,28.8L675.9,28.8z M656.6,61c0-9.7-6.4-15.7-15.3-15.7S626,51.3,626,61s6.4,15.7,15.3,15.7
		S656.6,70.6,656.6,61z"/>
</g>
<g>
	<path class="st0" d="M110.6,192.4h-9.8V222H80.2v-90.1h36c17.1,0,30.9,13.8,30.9,30.9c0,11.1-6.7,21.1-16.6,26.1l19.2,33.1h-22.1
		L110.6,192.4z M100.8,174.3h15.5c5.7,0,10.3-5,10.3-11.6s-4.6-11.6-10.3-11.6h-15.4v23.2H100.8z"/>
	<path class="st0" d="M221.5,157.6v64.3h-19.3v-6c-4.2,4.9-10.6,7.8-19.2,7.8c-16.9,0-30.8-14.8-30.8-34s13.9-34,30.8-34
		c8.6,0,14.9,3,19.2,7.8v-6L221.5,157.6L221.5,157.6z M202.2,189.8c0-9.7-6.4-15.7-15.3-15.7s-15.3,6-15.3,15.7s6.4,15.7,15.3,15.7
		S202.2,199.4,202.2,189.8z"/>
	<path class="st0" d="M332.2,182.4v39.5h-19.3v-37.8c0-6.4-3.1-10.6-9.3-10.6c-6.4,0-10,4.5-10,12.1v36.3h-19.3v-37.8
		c0-6.4-3.1-10.6-9.3-10.6c-6.4,0-10,4.5-10,12.1v36.3h-19.3v-64.3H255v5.9c3-4.4,8.6-7.7,17.2-7.7c7.6,0,13.3,3.1,16.9,8.5
		c3.6-5.1,9.5-8.5,18.7-8.5C322.5,155.8,332.2,166.4,332.2,182.4z"/>
	<path class="st0" d="M411.5,157.6v64.3h-19.3v-6c-4.2,4.9-10.6,7.8-19.2,7.8c-16.9,0-30.8-14.8-30.8-34s13.9-34,30.8-34
		c8.6,0,14.9,3,19.2,7.8v-6L411.5,157.6L411.5,157.6z M392.2,189.8c0-9.7-6.4-15.7-15.3-15.7c-8.9,0-15.3,6-15.3,15.7
		s6.4,15.7,15.3,15.7C385.7,205.5,392.2,199.4,392.2,189.8z"/>
	<path class="st0" d="M422.4,189.8c0-19.2,14.5-34,34.1-34c12.5,0,23.5,6.6,29.1,16.5l-16.9,9.8c-2.2-4.5-6.8-7.2-12.5-7.2
		c-8.4,0-14.5,6-14.5,14.9s6.2,14.9,14.5,14.9c5.7,0,10.4-2.7,12.5-7.2l16.9,9.7c-5.5,10-16.5,16.6-29.1,16.6
		C436.9,223.7,422.4,209,422.4,189.8z"/>
	<path class="st0" d="M488.8,189.8c0-19.2,14.5-34,34.1-34c12.5,0,23.5,6.6,29.1,16.5l-16.9,9.8c-2.2-4.5-6.8-7.2-12.5-7.2
		c-8.4,0-14.5,6-14.5,14.9s6.2,14.9,14.5,14.9c5.7,0,10.4-2.7,12.5-7.2l16.9,9.7c-5.5,10-16.5,16.6-29.1,16.6
		C503.3,223.7,488.8,209,488.8,189.8z"/>
	<path class="st0" d="M557.8,140.4c0-6.3,5.3-11.6,11.6-11.6s11.6,5.3,11.6,11.6s-5.3,11.6-11.6,11.6
		C563,151.9,557.8,146.7,557.8,140.4z M559.7,157.6H579v64.3h-19.3V157.6z"/>
	<path class="st0" d="M589.9,189.8c0-19.2,15.2-34,34.1-34c18.9,0,34.1,14.8,34.1,34s-15.2,34-34.1,34
		C605.1,223.7,589.9,209,589.9,189.8z M638.8,189.8c0-9.1-6.4-15.2-14.8-15.2c-8.4,0-14.8,6-14.8,15.2S615.6,205,624,205
		S638.8,198.9,638.8,189.8z"/>
	<path class="st0" d="M692.2,176.1v22.8c0,5.5,4.8,6,13.3,5.5v17.5c-25.2,2.6-32.6-5-32.6-23v-22.8h-10.3v-18.5h10.3v-12.2l19.3-5.8
		v18h13.3v18.5H692.2z"/>
	<path class="st0" d="M738.9,176.1v22.8c0,5.5,4.8,6,13.3,5.5v17.5c-25.2,2.6-32.6-5-32.6-23v-22.8h-10.3v-18.5h10.3v-12.2l19.3-5.8
		v18h13.3v18.5H738.9z"/>
	<path class="st0" d="M761.2,140.4c0-6.3,5.3-11.6,11.6-11.6s11.6,5.3,11.6,11.6s-5.3,11.6-11.6,11.6
		C766.5,151.9,761.2,146.7,761.2,140.4z M763.1,157.6h19.3v64.3h-19.3V157.6z"/>
</g>
<g>
	<path class="st0" d="M241.4,282.8v12h13.9v2.2h-13.9v13.8h-2.3v-30.1h16.7v2.1H241.4z"/>
	<path class="st0" d="M278.6,289.3v21.5h-2.1v-4.1c-1.6,3.2-4.4,4.6-7.7,4.6c-5.1,0-8.3-3.4-8.3-8.6v-13.4h2.2v13.4
		c0,4,2.3,6.5,6.3,6.5c4.2,0,7.5-2.8,7.5-8.6v-11.3H278.6z"/>
	<path class="st0" d="M285.3,279.4h2.2v31.4h-2.2V279.4z"/>
	<path class="st0" d="M294,279.4h2.2v31.4H294V279.4z"/>
	<path class="st0" d="M301.4,304.1l2-1.2c1,3.6,4.1,6.1,9,6.1c5,0,7.6-2.6,7.6-6c0-3.6-3.2-5-7.8-6.5c-5-1.6-9.5-3.1-9.5-8.3
		c0-4.9,4-8.1,9.1-8.1c4.9,0,8.2,2.8,9.7,6.3l-1.9,1.1c-1.1-2.7-3.4-5.2-7.7-5.2c-4.2,0-6.8,2.5-6.8,5.8c0,3.6,3.1,4.7,7.4,6.1
		c5.3,1.8,10,3.4,10,8.6c0,5-3.9,8.3-9.9,8.3C306.8,311.2,302.8,308.4,301.4,304.1z"/>
	<path class="st0" d="M331.4,291.4v14c0,3.8,2,3.9,6.4,3.5v1.9c-5.6,0.9-8.6-0.5-8.6-5.4v-14h-4.7v-2.1h4.7v-5.4l2.2-0.6v6h6.4v2.1
		H331.4z"/>
	<path class="st0" d="M362.8,289.3v21.5h-2.2v-4.9c-1.8,3.2-5.1,5.3-9.2,5.3c-6.1,0-11.1-4.9-11.1-11.2c0-6.4,5-11.2,11.1-11.2
		c4.1,0,7.4,2.1,9.2,5.3v-4.9L362.8,289.3L362.8,289.3z M360.6,300c0-5.1-4-9.2-9.1-9.2s-9.1,4-9.1,9.2c0,5.1,4,9.2,9.1,9.2
		C356.7,309.2,360.6,305.1,360.6,300z"/>
	<path class="st0" d="M368,300c0-6.4,4.8-11.2,11.3-11.2c4.2,0,7.8,2.1,9.4,5.5l-1.8,1c-1.2-2.7-4.2-4.5-7.6-4.5
		c-5.2,0-9.1,4-9.1,9.2c0,5.1,3.9,9.2,9.1,9.2c3.5,0,6.3-1.8,7.7-4.5l1.8,1.1c-1.7,3.3-5.3,5.5-9.5,5.5
		C372.8,311.2,368,306.4,368,300z"/>
	<path class="st0" d="M407.1,310.8l-11.4-10.6v10.6h-2.1v-30.1h2.2V299l10.9-9.8h3l-11.6,10.3l12,11.2h-3V310.8z"/>
	<path class="st0" d="M451.8,295.7c0,8.3-5.9,15-14.2,15h-11.3v-30h11.3C445.9,280.7,451.8,287.4,451.8,295.7z M449.5,295.7
		c0-7.1-4.9-12.9-12-12.9h-9v25.8h9C444.7,308.6,449.5,302.9,449.5,295.7z"/>
	<path class="st0" d="M477.4,300.1c0,0.3,0,0.7,0,1h-19.5c0.5,4.9,4.2,8,9.1,8c3.5,0,6.2-1.6,7.4-3.9l1.9,1.1
		c-1.8,2.9-5.1,4.9-9.4,4.9c-6.6,0-11.3-4.7-11.3-11.2c0-6.3,4.6-11.2,11.1-11.2C473.3,288.8,477.4,294.2,477.4,300.1z M457.9,299
		h17.3c-0.5-5.2-4.2-8.2-8.4-8.2C461.9,290.9,458.3,294.3,457.9,299z"/>
	<path class="st0" d="M499.6,289.3l-9.1,21.5h-2.6l-9.1-21.5h2.3l8.1,19.3l8.1-19.3C497.3,289.3,499.6,289.3,499.6,289.3z"/>
	<path class="st0" d="M523,300.1c0,0.3,0,0.7,0,1h-19.5c0.5,4.9,4.2,8,9.1,8c3.5,0,6.2-1.6,7.4-3.9l1.9,1.1
		c-1.8,2.9-5.1,4.9-9.4,4.9c-6.6,0-11.3-4.7-11.3-11.2c0-6.3,4.6-11.2,11.1-11.2C518.9,288.8,523,294.2,523,300.1z M503.4,299h17.3
		c-0.5-5.2-4.2-8.2-8.4-8.2C507.4,290.9,503.9,294.3,503.4,299z"/>
	<path class="st0" d="M528,279.4h2.2v31.4H528V279.4z"/>
	<path class="st0" d="M535.3,300c0-6.4,5-11.2,11.3-11.2c6.2,0,11.3,4.9,11.3,11.2c0,6.4-5,11.2-11.3,11.2S535.3,306.4,535.3,300z
		 M555.7,300c0-5.1-4-9.2-9.1-9.2s-9.1,4-9.1,9.2c0,5.1,4,9.2,9.1,9.2S555.7,305.1,555.7,300z"/>
	<path class="st0" d="M585.6,300c0,6.4-5,11.2-11.1,11.2c-4.2,0-7.5-2.1-9.2-5.5v13.6h-2.2v-30h2.2v5c1.8-3.3,5.1-5.5,9.2-5.5
		C580.6,288.8,585.6,293.6,585.6,300z M583.4,300c0-5.1-4-9.2-9.1-9.2s-9.1,4-9.1,9.2c0,5.1,4,9.2,9.1,9.2S583.4,305.1,583.4,300z"
		/>
	<path class="st0" d="M611.1,300.1c0,0.3,0,0.7,0,1h-19.5c0.5,4.9,4.2,8,9.1,8c3.5,0,6.2-1.6,7.4-3.9l1.9,1.1
		c-1.8,2.9-5.1,4.9-9.4,4.9c-6.6,0-11.3-4.7-11.3-11.2c0-6.3,4.6-11.2,11.1-11.2C607,288.8,611.1,294.2,611.1,300.1z M591.5,299
		h17.3c-0.5-5.2-4.2-8.2-8.4-8.2C595.5,290.9,592,294.3,591.5,299z"/>
	<path class="st0" d="M625.4,289v2c-3.7,0-7.2,2.3-7.2,7.8v12H616v-21.5h2.2v4.2C619.7,290.1,622.5,289,625.4,289z"/>
</g>
<polygon class="st0" points="30.9,210.2 0,179.3 30.9,148.3 35.2,152.6 8.5,179.3 35.2,206 "/>
<polygon class="st0" points="879,211.2 874.8,206.9 901.5,180.3 874.8,153.6 879,149.3 910,180.3 "/>
<rect x="801.8" y="171.6" transform="matrix(0.4592 -0.8883 0.8883 0.4592 300.3641 842.5394)" class="st0" width="80.6" height="6"/>
</svg>
