<?xml version="1.0" encoding="utf-8"?>
<!-- Generator: Adobe Illustrator 24.2.1, SVG Export Plug-In . SVG Version: 6.00 Build 0)  -->
<svg version="1.1" id="Layer_1" xmlns="http://www.w3.org/2000/svg" xmlns:xlink="http://www.w3.org/1999/xlink" x="0px" y="0px"
	 viewBox="0 0 270.3 638.9" style="enable-background:new 0 0 270.3 638.9;" xml:space="preserve">
<style type="text/css">
	.st0{fill:#bfbccd;} <!-- CAÇA PALAVRAS -->
	.st1{fill:#e2dfeb;}
</style>
<g>
	<g>
		<g>
			<path class="st0" d="M0,7.5C0,3.3,3.6,0,8.2,0s8.2,3.3,8.2,7.5S12.7,15,8.2,15S0,11.6,0,7.5z M15.1,7.5c0-3.6-3-6.4-7-6.4
				c-3.9,0-7,2.9-7,6.4s3,6.4,7,6.4S15.1,11.1,15.1,7.5z"/>
		</g>
		<g>
			<path class="st0" d="M9.4,39.1h-5v6H3.2V30.5h6.2c2.6,0,4.7,1.9,4.7,4.3c0,2-1.5,3.6-3.5,4.1l3.9,6.1h-1.4L9.4,39.1z M4.4,38h5
				c1.9,0,3.5-1.5,3.5-3.2c0-1.8-1.6-3.3-3.5-3.3h-5C4.4,31.5,4.4,38,4.4,38z"/>
		</g>
		<g>
			<path class="st0" d="M16.1,69.1c0,3.5-2.9,6.4-7.6,6.4c-4.9,0-8.3-3.3-8.3-7.5s3.4-7.5,8.2-7.5c2.9,0,5.5,1.4,6.8,3.5l-1.1,0.6
				c-1-1.8-3.3-3-5.7-3c-4.2,0-7,2.9-7,6.4s2.9,6.4,7.1,6.4c3.8,0,6.2-2.2,6.4-4.9H8.2v-1h7.9V69.1z"/>
		</g>
		<g>
			<path class="st0" d="M12.1,101.9H4.2l-1.5,3.7H1.4l6.1-14.5h1.3l6.1,14.5h-1.3L12.1,101.9z M11.7,100.9l-3.5-8.4l-3.5,8.4H11.7z"
				/>
		</g>
		<g>
			<path class="st0" d="M13.9,121.4v14.5h-1.1l-9.3-12.5v12.5H2.4v-14.5h1l9.3,12.5v-12.5C12.7,121.4,13.9,121.4,13.9,121.4z"/>
		</g>
		<g>
			<path class="st0" d="M8.8,151.7v14.5H7.6v-14.5H8.8z"/>
		</g>
		<g>
			<path class="st0" d="M13.3,195.4v1H3.2v-1l8.5-12.4H3.4v-1H13v1l-8.5,12.4H13.3z"/>
		</g>
		<g>
			<path class="st0" d="M12.1,223H4.2l-1.5,3.7H1.4l6.1-14.5h1.3l6.1,14.5h-1.3L12.1,223z M11.7,222l-3.5-8.4L4.6,222H11.7z"/>
		</g>
		<g>
			<path class="st0" d="M15.3,249.8c0,4-3.1,7.3-7.5,7.3H1.9v-14.5h5.9C12.2,242.5,15.3,245.8,15.3,249.8z M14.1,249.8
				c0-3.4-2.6-6.2-6.3-6.2H3.1V256h4.7C11.6,256,14.1,253.2,14.1,249.8z"/>
		</g>
		<g>
			<path class="st0" d="M12.1,283.6H4.2l-1.5,3.7H1.4l6.1-14.5h1.3l6.1,14.5h-1.3L12.1,283.6z M11.7,282.6l-3.5-8.4l-3.5,8.4H11.7z"
				/>
		</g>
		<g>
			<path class="st0" d="M8.8,311.6v6H7.6v-6l-5.8-8.5h1.4l5,7.5l5-7.5h1.4L8.8,311.6z"/>
		</g>
		<g>
			<path class="st0" d="M0.7,340.6c0-4.1,3.4-7.5,8.2-7.5c2.9,0,5.5,1.4,6.8,3.5l-1.1,0.6c-1-1.8-3.2-3-5.7-3c-4.2,0-7,2.9-7,6.4
				s2.9,6.4,7,6.4c2.5,0,4.7-1.2,5.8-3l1.1,0.6c-1.3,2.1-3.9,3.5-6.8,3.5C4.1,348.1,0.7,344.8,0.7,340.6z"/>
		</g>
	</g>
	<g>
		<g>
			<path class="st0" d="M23.1,7.5c0-4.1,3.6-7.5,8.2-7.5s8.2,3.3,8.2,7.5S35.8,15,31.2,15C26.7,15,23.1,11.6,23.1,7.5z M38.2,7.5
				c0-3.6-3-6.4-7-6.4c-3.9,0-7,2.9-7,6.4s3,6.4,7,6.4S38.2,11.1,38.2,7.5z"/>
		</g>
		<g>
			<path class="st0" d="M36.3,44v1h-8.6V30.5h1.2V44H36.3z"/>
		</g>
		<g>
			<path class="st0" d="M31.8,69.3v6h-1.2v-6l-5.8-8.5h1.4l5,7.5l5-7.5h1.4L31.8,69.3z"/>
		</g>
		<g>
			<path class="st0" d="M31.8,91.1v14.5h-1.2V91.1H31.8z"/>
		</g>
		<g>
			<path class="st0" d="M35.2,132.2h-7.9l-1.5,3.7h-1.3l6.1-14.5h1.3l6.1,14.5h-1.3L35.2,132.2z M34.8,131.2l-3.5-8.4l-3.5,8.4H34.8
				z"/>
		</g>
		<g>
			<path class="st0" d="M38.4,166.2h-1.2v-12.9l-5.8,8.9h-0.2l-5.8-8.9v12.9h-1.2v-14.5h1.5l5.6,8.6l5.6-8.6h1.5V166.2z"/>
		</g>
		<g>
			<path class="st0" d="M36.8,183h-5v13.5h-1.2V183h-5v-1h11.2V183z"/>
		</g>
		<g>
			<path class="st0" d="M25.8,223.5l1-0.6c0.5,1.7,2.1,2.9,4.7,2.9s4-1.2,4-2.9s-1.7-2.4-4.1-3.1c-2.6-0.8-5-1.5-5-4
				c0-2.4,2.1-3.9,4.8-3.9c2.6,0,4.3,1.4,5.1,3l-1,0.5c-0.6-1.3-1.8-2.5-4.1-2.5c-2.2,0-3.6,1.2-3.6,2.8c0,1.7,1.6,2.3,3.9,3
				c2.8,0.9,5.2,1.7,5.2,4.2c0,2.4-2.1,4-5.2,4C28.6,227,26.5,225.6,25.8,223.5z"/>
		</g>
		<g>
			<path class="st0" d="M20.8,242.5H22l4.1,13l4.4-13H32l4.4,13l4.1-13h1.3L37.1,257h-1.4l-4.4-13.1L26.8,257h-1.4L20.8,242.5z"/>
		</g>
		<g>
			<path class="st0" d="M26,285.1l1-0.6c0.6,1.3,1.9,1.9,3.7,1.9c2.3,0,3.9-1.1,3.9-3.2v-10.5h1.2v10.5c0,2.8-2.3,4.2-5.1,4.2
				C28.5,287.5,26.7,286.7,26,285.1z"/>
		</g>
		<g>
			<path class="st0" d="M36.8,304.1h-5v13.5h-1.2v-13.5h-5v-1h11.2V304.1z"/>
		</g>
		<g>
			<path class="st0" d="M23.1,340.6c0-4.1,3.6-7.5,8.2-7.5s8.2,3.3,8.2,7.5s-3.6,7.5-8.2,7.5S23.1,344.8,23.1,340.6z M38.2,340.6
				c0-3.6-3-6.4-7-6.4c-3.9,0-7,2.9-7,6.4s3,6.4,7,6.4S38.2,344.2,38.2,340.6z"/>
		</g>
	</g>
	<g>
		<g>
			<path class="st0" d="M58.3,11.1h-7.9l-1.5,3.7h-1.3l6.1-14.5H55l6.1,14.5h-1.3L58.3,11.1z M57.9,10l-3.5-8.4L50.8,10H57.9z"/>
		</g>
		<g>
			<path class="st0" d="M48.5,40.2v-9.7h1.2v9.7c0,2.4,1.6,4,4.6,4s4.6-1.7,4.6-4v-9.7h1.2v9.7c0,3.1-2.3,5.1-5.8,5.1
				S48.5,43.2,48.5,40.2z"/>
		</g>
		<g>
			<path class="st0" d="M59.9,61.8h-5v13.5h-1.2V61.8h-5v-1h11.2V61.8z"/>
		</g>
		<g>
			<path class="st0" d="M46.2,98.3c0-4.1,3.6-7.5,8.2-7.5s8.2,3.3,8.2,7.5s-3.6,7.5-8.2,7.5S46.2,102.5,46.2,98.3z M61.3,98.3
				c0-3.6-3-6.4-7-6.4c-3.9,0-7,2.9-7,6.4s3,6.4,7,6.4C58.2,104.8,61.3,101.9,61.3,98.3z"/>
		</g>
		<g>
			<path class="st0" d="M61.5,128.6c0,4-3.1,7.3-7.5,7.3h-5.9v-14.5H54C58.4,121.4,61.5,124.6,61.5,128.6z M60.3,128.6
				c0-3.4-2.6-6.2-6.3-6.2h-4.7v12.4H54C57.8,134.8,60.3,132.1,60.3,128.6z"/>
		</g>
		<g>
			<path class="st0" d="M54.9,151.7v14.5h-1.2v-14.5H54.9z"/>
		</g>
		<g>
			<path class="st0" d="M61.5,189.2c0,4-3.1,7.3-7.5,7.3h-5.9V182H54C58.4,181.9,61.5,185.2,61.5,189.2z M60.3,189.2
				c0-3.4-2.6-6.2-6.3-6.2h-4.7v12.4H54C57.8,195.4,60.3,192.6,60.3,189.2z"/>
		</g>
		<g>
			<path class="st0" d="M58.3,223h-7.9l-1.5,3.7h-1.3l6.1-14.5H55l6.1,14.5h-1.3L58.3,223z M57.9,222l-3.5-8.4l-3.5,8.4H57.9z"/>
		</g>
		<g>
			<path class="st0" d="M59.9,243.5h-5V257h-1.2v-13.5h-5v-1h11.2V243.5z"/>
		</g>
		<g>
			<path class="st0" d="M58.3,283.6h-7.9l-1.5,3.7h-1.3l6.1-14.5H55l6.1,14.5h-1.3L58.3,283.6z M57.9,282.6l-3.5-8.4l-3.5,8.4H57.9z
				"/>
		</g>
		<g>
			<path class="st0" d="M48.5,312.7V303h1.2v9.7c0,2.4,1.6,4,4.6,4s4.6-1.7,4.6-4V303h1.2v9.7c0,3.1-2.3,5.1-5.8,5.1
				S48.5,315.8,48.5,312.7z"/>
		</g>
		<g>
			<path class="st0" d="M61.5,347.9h-1.2V335l-5.8,8.9h-0.2l-5.8-8.9v12.9h-1.2v-14.5h1.5l5.6,8.6l5.6-8.6h1.5
				C61.5,333.4,61.5,347.9,61.5,347.9z"/>
		</g>
	</g>
	<g>
		<g>
			<path class="st0" d="M78.7,8.8h-5v6h-1.2V0.2h6.2c2.6,0,4.7,1.9,4.7,4.3c0,2-1.5,3.6-3.5,4.1l3.9,6.1h-1.4L78.7,8.8z M73.7,7.8h5
				c1.9,0,3.5-1.5,3.5-3.2c0-1.8-1.6-3.3-3.5-3.3h-5V7.8z"/>
		</g>
		<g>
			<path class="st0" d="M82.5,44v1h-9.1V30.5h9v1h-7.8v5.6h7.2v1h-7.2V44H82.5z"/>
		</g>
		<g>
			<path class="st0" d="M72,72.1l1-0.6c0.5,1.7,2.1,2.9,4.7,2.9s4-1.2,4-2.9c0-1.7-1.7-2.4-4.1-3.1c-2.6-0.8-5-1.5-5-4
				c0-2.4,2.1-3.9,4.8-3.9c2.6,0,4.3,1.4,5.1,3l-1,0.5c-0.6-1.3-1.8-2.5-4.1-2.5c-2.2,0-3.6,1.2-3.6,2.8c0,1.7,1.6,2.3,3.9,3
				c2.8,0.9,5.2,1.7,5.2,4.2c0,2.4-2.1,4-5.2,4C74.8,75.5,72.7,74.2,72,72.1z"/>
		</g>
		<g>
			<path class="st0" d="M83.1,95.6c0,2.6-2.1,4.5-4.9,4.5H74v5.5h-1.2V91.1h5.4C81,91.1,83.1,93,83.1,95.6z M81.9,95.6
				c0-2-1.6-3.5-3.7-3.5H74V99h4.2C80.3,99,81.9,97.6,81.9,95.6z"/>
		</g>
		<g>
			<path class="st0" d="M69.3,128.6c0-4.1,3.6-7.5,8.2-7.5s8.2,3.3,8.2,7.5s-3.6,7.5-8.2,7.5S69.3,132.8,69.3,128.6z M84.4,128.6
				c0-3.6-3-6.4-7-6.4c-3.9,0-7,2.9-7,6.4s3,6.4,7,6.4C81.3,135.1,84.4,132.2,84.4,128.6z"/>
		</g>
		<g>
			<path class="st0" d="M83.2,151.7v14.5h-1.1l-9.3-12.5v12.5h-1.2v-14.5h1l9.3,12.5v-12.5H83.2z"/>
		</g>
		<g>
			<path class="st0" d="M72,193.3l1-0.6c0.5,1.7,2.1,2.9,4.7,2.9s4-1.2,4-2.9s-1.7-2.4-4.1-3.1c-2.6-0.8-5-1.5-5-4
				c0-2.4,2.1-3.9,4.8-3.9c2.6,0,4.3,1.4,5.1,3l-1,0.5c-0.6-1.3-1.8-2.5-4.1-2.5c-2.2,0-3.6,1.2-3.6,2.8c0,1.7,1.6,2.3,3.9,3
				c2.8,0.9,5.2,1.7,5.2,4.2c0,2.4-2.1,4-5.2,4C74.8,196.7,72.7,195.3,72,193.3z"/>
		</g>
		<g>
			<path class="st0" d="M81.4,223h-7.9l-1.5,3.7h-1.3l6.1-14.5h1.3l6.1,14.5h-1.3L81.4,223z M81,222l-3.5-8.4L74,222H81z
				 M77.6,210.8h-1.1l1.8-2.6h1.4L77.6,210.8z"/>
		</g>
		<g>
			<path class="st0" d="M70.9,242.5h1.3l5.2,13.1l5.2-13.1H84L78.1,257h-1.3L70.9,242.5z"/>
		</g>
		<g>
			<path class="st0" d="M82.5,286.3v1h-9.1v-14.5h9v1h-7.8v5.6h7.2v1h-7.2v5.8h7.9V286.3z"/>
		</g>
		<g>
			<path class="st0" d="M82.5,316.6v1h-8.6v-14.5H75v13.5H82.5z"/>
		</g>
		<g>
			<path class="st0" d="M71.6,343v-9.7h1.2v9.7c0,2.4,1.6,4,4.6,4s4.6-1.7,4.6-4v-9.7h1.2v9.7c0,3.1-2.3,5.1-5.8,5.1
				C73.9,348.1,71.6,346.1,71.6,343z"/>
		</g>
	</g>
	<g>
		<g>
			<path class="st0" d="M104.5,11.1h-7.9L95,14.7h-1.3l6.1-14.5h1.3l6.1,14.5H106L104.5,11.1z M104.1,10l-3.5-8.4L97,10H104.1z"/>
		</g>
		<g>
			<path class="st0" d="M106.6,41.1c0,2.2-1.9,4-4.3,4h-6.8V30.5h6.3c2.3,0,4.2,1.7,4.2,3.8c0,1.4-0.8,2.6-2,3.2
				C105.5,38.1,106.6,39.4,106.6,41.1z M96.7,31.5v5.6h5.1c1.6,0,3-1.2,3-2.8s-1.3-2.8-3-2.8H96.7z M105.4,41.1
				c0-1.6-1.4-2.9-3.1-2.9h-5.6V44h5.6C104,44,105.4,42.7,105.4,41.1z"/>
		</g>
		<g>
			<path class="st0" d="M95.1,72.1l1-0.6c0.5,1.7,2.1,2.9,4.7,2.9s4-1.2,4-2.9c0-1.7-1.7-2.4-4.1-3.1c-2.6-0.8-5-1.5-5-4
				c0-2.4,2.1-3.9,4.8-3.9c2.6,0,4.3,1.4,5.1,3l-1,0.5c-0.6-1.3-1.8-2.5-4.1-2.5c-2.2,0-3.6,1.2-3.6,2.8c0,1.7,1.6,2.3,3.9,3
				c2.8,0.9,5.2,1.7,5.2,4.2c0,2.4-2.1,4-5.2,4C97.9,75.5,95.8,74.2,95.1,72.1z"/>
		</g>
		<g>
			<path class="st0" d="M93.1,98.3c0-4.1,3.4-7.5,8.2-7.5c2.9,0,5.5,1.4,6.8,3.5l-1.1,0.6c-1-1.8-3.2-3-5.7-3c-4.2,0-7,2.9-7,6.4
				s2.9,6.4,7,6.4c2.5,0,4.7-1.2,5.8-3l1.1,0.6c-1.3,2.1-3.9,3.5-6.8,3.5C96.5,105.8,93.1,102.5,93.1,98.3z"/>
		</g>
		<g>
			<path class="st0" d="M106.1,122.4h-5v13.5h-1.2v-13.5h-5v-1h11.2V122.4z"/>
		</g>
		<g>
			<path class="st0" d="M101.8,160.2h-5v6h-1.2v-14.5h6.2c2.6,0,4.7,1.9,4.7,4.3c0,2-1.5,3.6-3.5,4.1l3.9,6.1h-1.4L101.8,160.2z
				 M96.8,159.2h5c1.9,0,3.5-1.5,3.5-3.2c0-1.8-1.6-3.3-3.5-3.3h-5V159.2z"/>
		</g>
		<g>
			<path class="st0" d="M106.3,181.9v14.5h-1.1L95.9,184v12.5h-1.2V182h1l9.3,12.5V182h1.3V181.9z"/>
		</g>
		<g>
			<path class="st0" d="M92.4,219.5c0-4.1,3.6-7.5,8.2-7.5s8.2,3.3,8.2,7.5s-3.6,7.5-8.2,7.5S92.4,223.6,92.4,219.5z M107.5,219.5
				c0-3.6-3-6.4-7-6.4c-3.9,0-7,2.9-7,6.4s3,6.4,7,6.4C104.4,225.9,107.5,223,107.5,219.5z"/>
		</g>
		<g>
			<path class="st0" d="M106.1,243.5h-5V257h-1.2v-13.5h-5v-1h11.2V243.5z"/>
		</g>
		<g>
			<path class="st0" d="M104.5,283.6h-7.9l-1.5,3.7h-1.3l6.1-14.5h1.3l6.1,14.5H106L104.5,283.6z M104.1,282.6l-3.5-8.4l-3.5,8.4
				H104.1z"/>
		</g>
		<g>
			<path class="st0" d="M95.1,314.4l1-0.6c0.5,1.7,2.1,2.9,4.7,2.9s4-1.2,4-2.9c0-1.7-1.7-2.4-4.1-3.1c-2.6-0.8-5-1.5-5-4
				c0-2.4,2.1-3.9,4.8-3.9c2.6,0,4.3,1.4,5.1,3l-1,0.5c-0.6-1.3-1.8-2.5-4.1-2.5c-2.2,0-3.6,1.2-3.6,2.8c0,1.7,1.6,2.3,3.9,3
				c2.8,0.9,5.2,1.7,5.2,4.2c0,2.4-2.1,4-5.2,4C97.9,317.8,95.8,316.5,95.1,314.4z"/>
		</g>
		<g>
			<path class="st0" d="M106.3,333.4v14.5h-1.1l-9.3-12.5v12.5h-1.2v-14.5h1l9.3,12.5v-12.5H106.3z"/>
		</g>
	</g>
	<g>
		<g>
			<path class="st0" d="M118.2,11.6l1-0.6c0.5,1.7,2.1,2.9,4.7,2.9s4-1.2,4-2.9s-1.7-2.4-4.1-3.1c-2.6-0.8-5-1.5-5-4
				c0-2.4,2.1-3.9,4.8-3.9c2.6,0,4.3,1.4,5.1,3l-1,0.5c-0.6-1.3-1.8-2.5-4.1-2.5c-2.2,0-3.6,1.2-3.6,2.8c0,1.7,1.6,2.3,3.9,3
				c2.8,0.9,5.2,1.7,5.2,4.2c0,2.4-2.1,4-5.2,4C121,15,118.9,13.6,118.2,11.6z"/>
		</g>
		<g>
			<path class="st0" d="M128.7,44v1h-9.1V30.5h9v1h-7.8v5.6h7.2v1h-7.2V44H128.7z"/>
		</g>
		<g>
			<path class="st0" d="M130.8,68.1c0,4-3.1,7.3-7.5,7.3h-5.9V60.8h5.9C127.7,60.8,130.8,64.1,130.8,68.1z M129.6,68.1
				c0-3.4-2.6-6.2-6.3-6.2h-4.7v12.4h4.7C127,74.3,129.6,71.5,129.6,68.1z"/>
		</g>
		<g>
			<path class="st0" d="M129.2,92.1h-5v13.5H123V92.1h-5v-1h11.2V92.1z"/>
		</g>
		<g>
			<path class="st0" d="M118.2,132.7l1-0.6c0.5,1.7,2.1,2.9,4.7,2.9s4-1.2,4-2.9s-1.7-2.4-4.1-3.1c-2.6-0.8-5-1.5-5-4
				c0-2.4,2.1-3.9,4.8-3.9c2.6,0,4.3,1.4,5.1,3l-1,0.5c-0.6-1.3-1.8-2.5-4.1-2.5c-2.2,0-3.6,1.2-3.6,2.8c0,1.7,1.6,2.3,3.9,3
				c2.8,0.9,5.2,1.7,5.2,4.2c0,2.4-2.1,4-5.2,4C121,136.1,118.9,134.7,118.2,132.7z"/>
		</g>
		<g>
			<path class="st0" d="M115.5,158.9c0-4.1,3.6-7.5,8.2-7.5c4.6,0,8.2,3.3,8.2,7.5s-3.6,7.5-8.2,7.5
				C119.1,166.4,115.5,163.1,115.5,158.9z M130.6,158.9c0-3.6-3-6.4-7-6.4c-3.9,0-7,2.9-7,6.4s3,6.4,7,6.4
				C127.5,165.3,130.6,162.5,130.6,158.9z"/>
		</g>
		<g>
			<path class="st0" d="M118.2,193.3l1-0.6c0.5,1.7,2.1,2.9,4.7,2.9s4-1.2,4-2.9s-1.7-2.4-4.1-3.1c-2.6-0.8-5-1.5-5-4
				c0-2.4,2.1-3.9,4.8-3.9c2.6,0,4.3,1.4,5.1,3l-1,0.5c-0.6-1.3-1.8-2.5-4.1-2.5c-2.2,0-3.6,1.2-3.6,2.8c0,1.7,1.6,2.3,3.9,3
				c2.8,0.9,5.2,1.7,5.2,4.2c0,2.4-2.1,4-5.2,4C121,196.7,118.9,195.3,118.2,193.3z"/>
		</g>
		<g>
			<path class="st0" d="M124.9,220.8h-5v6h-1.2v-14.5h6.2c2.6,0,4.7,1.9,4.7,4.3c0,2-1.5,3.6-3.5,4.1l3.9,6.1h-1.4L124.9,220.8z
				 M119.9,219.7h5c1.9,0,3.5-1.5,3.5-3.2c0-1.8-1.6-3.3-3.5-3.3h-5C119.9,213.2,119.9,219.7,119.9,219.7z"/>
		</g>
		<g>
			<path class="st0" d="M115.5,249.8c0-4.1,3.6-7.5,8.2-7.5c4.6,0,8.2,3.3,8.2,7.5s-3.6,7.5-8.2,7.5
				C119.1,257.3,115.5,253.9,115.5,249.8z M130.6,249.8c0-3.6-3-6.4-7-6.4c-3.9,0-7,2.9-7,6.4s3,6.4,7,6.4
				C127.5,256.2,130.6,253.3,130.6,249.8z"/>
		</g>
		<g>
			<path class="st0" d="M128.3,287.3l-7.9-7.2v7.2h-1.2v-14.5h1.2v6.8l7.7-6.8h1.6l-8,7.1l8.2,7.5h-1.6V287.3z"/>
		</g>
		<g>
			<path class="st0" d="M124.9,311.6h-5v6h-1.2v-14.5h6.2c2.6,0,4.7,1.9,4.7,4.3c0,2-1.5,3.6-3.5,4.1l3.9,6.1h-1.4L124.9,311.6z
				 M119.9,310.6h5c1.9,0,3.5-1.5,3.5-3.2c0-1.8-1.6-3.3-3.5-3.3h-5C119.9,304.1,119.9,310.6,119.9,310.6z"/>
		</g>
		<g>
			<path class="st0" d="M124.2,333.4v14.5H123v-14.5H124.2z"/>
		</g>
	</g>
	<g>
		<g>
			<path class="st0" d="M151.3,14.7l-7.9-7.2v7.2h-1.2V0.2h1.2V7l7.7-6.8h1.6l-8,7.1l8.2,7.5L151.3,14.7L151.3,14.7z"/>
		</g>
		<g>
			<path class="st0" d="M148,39.1h-5v6h-1.2V30.5h6.2c2.6,0,4.7,1.9,4.7,4.3c0,2-1.5,3.6-3.5,4.1l3.9,6.1h-1.4L148,39.1z M143,38h5
				c1.9,0,3.5-1.5,3.5-3.2c0-1.8-1.6-3.3-3.5-3.3h-5V38z"/>
		</g>
		<g>
			<path class="st0" d="M138.6,68.1c0-4.1,3.6-7.5,8.2-7.5s8.2,3.3,8.2,7.5s-3.6,7.5-8.2,7.5S138.6,72.2,138.6,68.1z M153.7,68.1
				c0-3.6-3-6.4-7-6.4c-3.9,0-7,2.9-7,6.4s3,6.4,7,6.4C150.6,74.5,153.7,71.6,153.7,68.1z"/>
		</g>
		<g>
			<path class="st0" d="M141.3,102.4l1-0.6c0.5,1.7,2.1,2.9,4.7,2.9c2.6,0,4-1.2,4-2.9c0-1.7-1.7-2.4-4.1-3.1c-2.6-0.8-5-1.5-5-4
				c0-2.4,2.1-3.9,4.8-3.9c2.6,0,4.3,1.4,5.1,3l-1,0.5c-0.6-1.3-1.8-2.5-4.1-2.5c-2.2,0-3.6,1.2-3.6,2.8c0,1.7,1.6,2.3,3.9,3
				c2.8,0.9,5.2,1.7,5.2,4.2c0,2.4-2.1,4-5.2,4C144.1,105.8,142,104.5,141.3,102.4z"/>
		</g>
		<g>
			<path class="st0" d="M140.9,131v-9.7h1.2v9.7c0,2.4,1.6,4,4.6,4s4.6-1.7,4.6-4v-9.7h1.2v9.7c0,3.1-2.3,5.1-5.8,5.1
				S140.9,134.1,140.9,131z"/>
		</g>
		<g>
			<path class="st0" d="M151.8,165.1v1h-9.1v-14.5h9v1h-7.8v5.6h7.2v1h-7.2v5.8L151.8,165.1L151.8,165.1z"/>
		</g>
		<g>
			<path class="st0" d="M151.8,195.4v1h-9.1v-14.5h9v1h-7.8v5.6h7.2v1h-7.2v5.8L151.8,195.4L151.8,195.4z"/>
		</g>
		<g>
			<path class="st0" d="M140.9,221.9v-9.7h1.2v9.7c0,2.4,1.6,4,4.6,4s4.6-1.7,4.6-4v-9.7h1.2v9.7c0,3.1-2.3,5.1-5.8,5.1
				S140.9,225,140.9,221.9z"/>
		</g>
		<g>
			<path class="st0" d="M151.8,256v1h-9.1v-14.5h9v1h-7.8v5.6h7.2v1h-7.2v5.8L151.8,256L151.8,256z"/>
		</g>
		<g>
			<path class="st0" d="M150.7,283.6h-7.9l-1.5,3.7H140l6.1-14.5h1.3l6.1,14.5h-1.3L150.7,283.6z M150.3,282.6l-3.5-8.4l-3.5,8.4
				H150.3z"/>
		</g>
		<g>
			<path class="st0" d="M151.8,316.6v1h-9.1v-14.5h9v1h-7.8v5.6h7.2v1h-7.2v5.8h7.9V316.6z"/>
		</g>
		<g>
			<path class="st0" d="M139.3,340.6c0-4.1,3.4-7.5,8.2-7.5c2.9,0,5.5,1.4,6.8,3.5l-1.1,0.6c-1-1.8-3.2-3-5.7-3c-4.2,0-7,2.9-7,6.4
				s2.9,6.4,7,6.4c2.5,0,4.7-1.2,5.8-3l1.1,0.6c-1.3,2.1-3.9,3.5-6.8,3.5C142.7,348.1,139.3,344.8,139.3,340.6z"/>
		</g>
	</g>
	<g>
		<g>
			<path class="st0" d="M175.4,1.3h-5v13.5h-1.2V1.3h-5v-1h11.2V1.3z"/>
		</g>
		<g>
			<path class="st0" d="M175.6,30.5V45h-1.1l-9.3-12.5V45H164V30.5h1l9.3,12.5V30.5H175.6z"/>
		</g>
		<g>
			<path class="st0" d="M174.9,74.3v1h-8.6V60.8h1.2v13.5H174.9z"/>
		</g>
		<g>
			<path class="st0" d="M164,100.7V91h1.2v9.7c0,2.4,1.6,4,4.6,4s4.6-1.7,4.6-4V91h1.2v9.7c0,3.1-2.3,5.1-5.8,5.1
				S164,103.8,164,100.7z"/>
		</g>
		<g>
			<path class="st0" d="M175.4,125.9c0,2.6-2.1,4.5-4.9,4.5h-4.2v5.5h-1.2v-14.5h5.4C173.4,121.4,175.4,123.3,175.4,125.9z
				 M174.3,125.9c0-2-1.6-3.5-3.7-3.5h-4.2v6.9h4.2C172.7,129.3,174.3,127.9,174.3,125.9z"/>
		</g>
		<g>
			<path class="st0" d="M177,158.9c0,4-3.1,7.3-7.5,7.3h-5.9v-14.5h5.9C173.9,151.7,177,154.9,177,158.9z M175.8,158.9
				c0-3.4-2.6-6.2-6.3-6.2h-4.7v12.4h4.7C173.2,165.1,175.8,162.4,175.8,158.9z"/>
		</g>
		<g>
			<path class="st0" d="M164.3,193.3l1-0.6c0.5,1.7,2.1,2.9,4.7,2.9c2.6,0,4-1.2,4-2.9s-1.7-2.4-4.1-3.1c-2.6-0.8-5-1.5-5-4
				c0-2.4,2.1-3.9,4.8-3.9c2.6,0,4.3,1.4,5.1,3l-1,0.5c-0.6-1.3-1.8-2.5-4.1-2.5c-2.2,0-3.6,1.2-3.6,2.8c0,1.7,1.6,2.3,3.9,3
				c2.8,0.9,5.2,1.7,5.2,4.2c0,2.4-2.1,4-5.2,4C167.2,196.7,165.1,195.3,164.3,193.3z"/>
		</g>
		<g>
			<path class="st0" d="M164.3,223.5l1-0.6c0.5,1.7,2.1,2.9,4.7,2.9c2.6,0,4-1.2,4-2.9s-1.7-2.4-4.1-3.1c-2.6-0.8-5-1.5-5-4
				c0-2.4,2.1-3.9,4.8-3.9c2.6,0,4.3,1.4,5.1,3l-1,0.5c-0.6-1.3-1.8-2.5-4.1-2.5c-2.2,0-3.6,1.2-3.6,2.8c0,1.7,1.6,2.3,3.9,3
				c2.8,0.9,5.2,1.7,5.2,4.2c0,2.4-2.1,4-5.2,4C167.2,227,165.1,225.6,164.3,223.5z"/>
		</g>
		<g>
			<path class="st0" d="M175.6,242.5V257h-1.2v-6.9h-9.2v6.9H164v-14.5h1.2v6.5h9.2v-6.5H175.6z"/>
		</g>
		<g>
			<path class="st0" d="M164.3,284.1l1-0.6c0.5,1.7,2.1,2.9,4.7,2.9c2.6,0,4-1.2,4-2.9c0-1.7-1.7-2.4-4.1-3.1c-2.6-0.8-5-1.5-5-4
				c0-2.4,2.1-3.9,4.8-3.9c2.6,0,4.3,1.4,5.1,3l-1,0.5c-0.6-1.3-1.8-2.5-4.1-2.5c-2.2,0-3.6,1.2-3.6,2.8c0,1.7,1.6,2.3,3.9,3
				c2.8,0.9,5.2,1.7,5.2,4.2c0,2.4-2.1,4-5.2,4C167.2,287.5,165.1,286.2,164.3,284.1z"/>
		</g>
		<g>
			<path class="st0" d="M175.6,303.1v14.5h-1.2v-6.9h-9.2v6.9H164v-14.5h1.2v6.5h9.2v-6.5H175.6z"/>
		</g>
		<g>
			<path class="st0" d="M173.8,344.2h-7.9l-1.5,3.7h-1.3l6.1-14.5h1.3l6.1,14.5h-1.3L173.8,344.2z M173.3,343.1l-3.5-8.4l-3.5,8.4
				H173.3z"/>
		</g>
	</g>
	<g>
		<g>
			<path class="st0" d="M193.5,0.2v14.5h-1.2V0.2H193.5z"/>
		</g>
		<g>
			<path class="st0" d="M198,44v1h-9.1V30.5h9v1h-7.8v5.6h7.2v1h-7.2V44H198z"/>
		</g>
		<g>
			<path class="st0" d="M198,74.3v1h-9.1V60.8h9v1h-7.8v5.6h7.2v1h-7.2v5.8L198,74.3L198,74.3z"/>
		</g>
		<g>
			<path class="st0" d="M196.9,101.9H189l-1.5,3.7h-1.3l6.1-14.5h1.3l6.1,14.5h-1.3L196.9,101.9z M196.4,100.9l-3.5-8.4l-3.5,8.4
				H196.4z"/>
		</g>
		<g>
			<path class="st0" d="M187.4,132.7l1-0.6c0.5,1.7,2.1,2.9,4.7,2.9c2.6,0,4-1.2,4-2.9s-1.7-2.4-4.1-3.1c-2.6-0.8-5-1.5-5-4
				c0-2.4,2.1-3.9,4.8-3.9c2.6,0,4.3,1.4,5.1,3l-1,0.5c-0.6-1.3-1.8-2.5-4.1-2.5c-2.2,0-3.6,1.2-3.6,2.8c0,1.7,1.6,2.3,3.9,3
				c2.8,0.9,5.2,1.7,5.2,4.2c0,2.4-2.1,4-5.2,4C190.3,136.1,188.2,134.7,187.4,132.7z"/>
		</g>
		<g>
			<path class="st0" d="M198,165.1v1h-8.6v-14.5h1.2v13.5H198z"/>
		</g>
		<g>
			<path class="st0" d="M193.5,181.9v14.5h-1.2v-14.5H193.5z"/>
		</g>
		<g>
			<path class="st0" d="M193.5,212.2v14.5h-1.2v-14.5H193.5z"/>
		</g>
		<g>
			<path class="st0" d="M194.1,251.1h-5v6H188v-14.5h6.2c2.6,0,4.7,1.9,4.7,4.3c0,2-1.5,3.6-3.5,4.1l3.9,6.1h-1.4L194.1,251.1z
				 M189.1,250h5c1.9,0,3.5-1.5,3.5-3.2c0-1.8-1.6-3.3-3.5-3.3h-5V250z"/>
		</g>
		<g>
			<path class="st0" d="M198,286.3v1h-9.1v-14.5h9v1h-7.8v5.6h7.2v1h-7.2v5.8h7.9V286.3z"/>
		</g>
		<g>
			<path class="st0" d="M196.9,313.9H189l-1.5,3.7h-1.3l6.1-14.5h1.3l6.1,14.5h-1.3L196.9,313.9z M196.4,312.9l-3.5-8.4l-3.5,8.4
				H196.4z"/>
		</g>
		<g>
			<path class="st0" d="M198.5,334.4h-5v13.5h-1.2v-13.5h-5v-1h11.2V334.4z"/>
		</g>
	</g>
	<g>
		<g>
			<path class="st0" d="M223.2,14.7H222V1.8l-5.8,8.9H216l-5.8-8.9v12.9H209V0.2h1.5l5.6,8.6l5.6-8.6h1.5L223.2,14.7L223.2,14.7z"/>
		</g>
		<g>
			<path class="st0" d="M210.5,41.8l1-0.6c0.5,1.7,2.1,2.9,4.7,2.9c2.6,0,4-1.2,4-2.9s-1.7-2.4-4.1-3.1c-2.6-0.8-5-1.5-5-4
				c0-2.4,2.1-3.9,4.8-3.9c2.6,0,4.3,1.4,5.1,3l-1,0.5c-0.6-1.3-1.8-2.5-4.1-2.5c-2.2,0-3.6,1.2-3.6,2.8c0,1.7,1.6,2.3,3.9,3
				c2.8,0.9,5.2,1.7,5.2,4.2c0,2.4-2.1,4-5.2,4C213.4,45.3,211.3,43.9,210.5,41.8z"/>
		</g>
		<g>
			<path class="st0" d="M221.1,74.3v1H212V60.8h9v1h-7.8v5.6h7.2v1h-7.2v5.8L221.1,74.3L221.1,74.3z"/>
		</g>
		<g>
			<path class="st0" d="M207.9,98.3c0-4.1,3.6-7.5,8.2-7.5c4.6,0,8.2,3.3,8.2,7.5s-3.6,7.5-8.2,7.5
				C211.4,105.8,207.9,102.5,207.9,98.3z M223,98.3c0-3.6-3-6.4-7-6.4c-3.9,0-7,2.9-7,6.4s3,6.4,7,6.4
				C219.9,104.8,223,101.9,223,98.3z"/>
		</g>
		<g>
			<path class="st0" d="M216.6,129.9v6h-1.2v-6l-5.8-8.5h1.4l5,7.5l5-7.5h1.4L216.6,129.9z"/>
		</g>
		<g>
			<path class="st0" d="M213.3,152.7v5.8h7.3v1h-7.3v6.6h-1.2v-14.5h8.8v1L213.3,152.7L213.3,152.7z"/>
		</g>
		<g>
			<path class="st0" d="M208.6,189.2c0-4.1,3.4-7.5,8.2-7.5c2.9,0,5.5,1.4,6.8,3.5l-1.1,0.6c-1-1.8-3.2-3-5.7-3c-4.2,0-7,2.9-7,6.4
				s2.9,6.4,7,6.4c2.5,0,4.7-1.2,5.8-3l1.1,0.6c-1.3,2.1-3.9,3.5-6.8,3.5C212,196.7,208.6,193.3,208.6,189.2z"/>
		</g>
		<g>
			<path class="st0" d="M207.9,219.5c0-4.1,3.6-7.5,8.2-7.5c4.6,0,8.2,3.3,8.2,7.5s-3.6,7.5-8.2,7.5
				C211.4,227,207.9,223.6,207.9,219.5z M223,219.5c0-3.6-3-6.4-7-6.4c-3.9,0-7,2.9-7,6.4s3,6.4,7,6.4
				C219.9,225.9,223,223,223,219.5z"/>
		</g>
		<g>
			<path class="st0" d="M221.1,256v1H212v-14.5h9v1h-7.8v5.6h7.2v1h-7.2v5.8L221.1,256L221.1,256z"/>
		</g>
		<g>
			<path class="st0" d="M216.6,272.8v14.5h-1.2v-14.5H216.6z"/>
		</g>
		<g>
			<path class="st0" d="M224,311.4c0,3.5-2.9,6.4-7.6,6.4c-4.9,0-8.3-3.3-8.3-7.5s3.4-7.5,8.2-7.5c2.9,0,5.5,1.4,6.8,3.5l-1.1,0.6
				c-1-1.8-3.3-3-5.7-3c-4.2,0-7,2.9-7,6.4s2.9,6.4,7.1,6.4c3.8,0,6.2-2.2,6.4-4.9h-6.7v-1h7.9L224,311.4L224,311.4z"/>
		</g>
		<g>
			<path class="st0" d="M216.6,333.4v14.5h-1.2v-14.5H216.6z"/>
		</g>
	</g>
	<g>
		<g>
			<path class="st0" d="M246.2,7.5c0,4-3.1,7.3-7.5,7.3h-5.9V0.2h5.9C243.2,0.2,246.2,3.5,246.2,7.5z M245.1,7.5
				c0-3.4-2.6-6.2-6.3-6.2H234v12.4h4.7C242.5,13.7,245.1,10.9,245.1,7.5z"/>
		</g>
		<g>
			<path class="st0" d="M244.7,31.5h-5V45h-1.2V31.5h-5v-1h11.2V31.5z"/>
		</g>
		<g>
			<path class="st0" d="M230.9,68.1c0-4.1,3.6-7.5,8.2-7.5s8.2,3.3,8.2,7.5s-3.6,7.5-8.2,7.5S230.9,72.2,230.9,68.1z M246.1,68.1
				c0-3.6-3-6.4-7-6.4c-3.9,0-7,2.9-7,6.4s3,6.4,7,6.4C243,74.5,246.1,71.6,246.1,68.1z"/>
		</g>
		<g>
			<path class="st0" d="M244.9,91.1v14.5h-1.1l-9.3-12.5v12.5h-1.2V91.1h1l9.3,12.5V91.1H244.9z"/>
		</g>
		<g>
			<path class="st0" d="M244.7,122.4h-5v13.5h-1.2v-13.5h-5v-1h11.2V122.4z"/>
		</g>
		<g>
			<path class="st0" d="M246.2,158.9c0,4-3.1,7.3-7.5,7.3h-5.9v-14.5h5.9C243.2,151.7,246.2,154.9,246.2,158.9z M245.1,158.9
				c0-3.4-2.6-6.2-6.3-6.2H234v12.4h4.7C242.5,165.1,245.1,162.4,245.1,158.9z"/>
		</g>
		<g>
			<path class="st0" d="M244.7,183h-5v13.5h-1.2V183h-5v-1h11.2V183z"/>
		</g>
		<g>
			<path class="st0" d="M244.9,212.2v14.5h-1.2v-6.9h-9.2v6.9h-1.2v-14.5h1.2v6.5h9.2v-6.5H244.9z"/>
		</g>
		<g>
			<path class="st0" d="M233.6,253.8l1-0.6c0.5,1.7,2.1,2.9,4.7,2.9c2.6,0,4-1.2,4-2.9s-1.7-2.4-4.1-3.1c-2.6-0.8-5-1.5-5-4
				c0-2.4,2.1-3.9,4.8-3.9c2.6,0,4.3,1.4,5.1,3l-1,0.5c-0.6-1.3-1.8-2.5-4.1-2.5c-2.2,0-3.6,1.2-3.6,2.8c0,1.7,1.6,2.3,3.9,3
				c2.8,0.9,5.2,1.7,5.2,4.2c0,2.4-2.1,4-5.2,4C236.5,257.3,234.4,255.9,233.6,253.8z"/>
		</g>
		<g>
			<path class="st0" d="M244.1,286.3v1H235v-14.5h9v1h-7.8v5.6h7.2v1h-7.2v5.8h7.9V286.3z"/>
		</g>
		<g>
			<path class="st0" d="M245.2,313.6c0,2.2-1.9,4-4.3,4H234v-14.5h6.3c2.3,0,4.2,1.7,4.2,3.8c0,1.4-0.8,2.6-2,3.2
				C244,310.6,245.2,312,245.2,313.6z M235.2,304.1v5.6h5.1c1.6,0,3-1.2,3-2.8s-1.3-2.8-3-2.8L235.2,304.1L235.2,304.1z M244,313.6
				c0-1.6-1.4-2.9-3.1-2.9h-5.6v5.8h5.6C242.6,316.6,244,315.2,244,313.6z"/>
		</g>
		<g>
			<path class="st0" d="M232.6,333.4h1.3l5.2,13.1l5.2-13.1h1.3l-5.9,14.5h-1.3L232.6,333.4z"/>
		</g>
	</g>
	<g>
		<g>
			<path class="st0" d="M268,0.2v14.5h-1.1l-9.3-12.5v12.5h-1.2V0.2h1l9.3,12.5V0.2H268z"/>
		</g>
		<g>
			<path class="st0" d="M266.2,41.3h-7.9l-1.5,3.7h-1.3l6.1-14.5h1.3L269,45h-1.3L266.2,41.3z M265.7,40.3l-3.5-8.4l-3.5,8.4H265.7z
				"/>
		</g>
		<g>
			<path class="st0" d="M267.8,61.8h-5v13.5h-1.2V61.8h-5v-1h11.2V61.8z"/>
		</g>
		<g>
			<path class="st0" d="M267.2,104.6v1h-9.1V91.1h9v1h-7.8v5.6h7.2v1h-7.2v5.8L267.2,104.6L267.2,104.6z"/>
		</g>
		<g>
			<path class="st0" d="M268,121.4v14.5h-1.1l-9.3-12.5v12.5h-1.2v-14.5h1l9.3,12.5v-12.5C266.7,121.4,268,121.4,268,121.4z"/>
		</g>
		<g>
			<path class="st0" d="M254.8,158.9c0-4.1,3.4-7.5,8.2-7.5c2.9,0,5.5,1.4,6.8,3.5l-1.1,0.6c-1-1.8-3.2-3-5.7-3c-4.2,0-7,2.9-7,6.4
				s2.9,6.4,7,6.4c2.5,0,4.7-1.2,5.8-3l1.1,0.6c-1.3,2.1-3.9,3.5-6.8,3.5C258.2,166.4,254.8,163.1,254.8,158.9z"/>
		</g>
		<g>
			<path class="st0" d="M262.8,181.9v14.5h-1.2v-14.5H262.8z"/>
		</g>
		<g>
			<path class="st0" d="M254,219.5c0-4.1,3.6-7.5,8.2-7.5s8.2,3.3,8.2,7.5s-3.6,7.5-8.2,7.5S254,223.6,254,219.5z M269.1,219.5
				c0-3.6-3-6.4-7-6.4c-3.9,0-7,2.9-7,6.4s3,6.4,7,6.4S269.1,223,269.1,219.5z"/>
		</g>
		<g>
			<path class="st0" d="M256.7,253.8l1-0.6c0.5,1.7,2.1,2.9,4.7,2.9s4-1.2,4-2.9s-1.7-2.4-4.1-3.1c-2.6-0.8-5-1.5-5-4
				c0-2.4,2.1-3.9,4.8-3.9c2.6,0,4.3,1.4,5.1,3l-1,0.5c-0.6-1.3-1.8-2.5-4.1-2.5c-2.2,0-3.6,1.2-3.6,2.8c0,1.7,1.6,2.3,3.9,3
				c2.8,0.9,5.2,1.7,5.2,4.2c0,2.4-2.1,4-5.2,4C259.5,257.3,257.5,255.9,256.7,253.8z"/>
		</g>
		<g>
			<path class="st0" d="M266.2,283.6h-7.9l-1.5,3.7h-1.3l6.1-14.5h1.3l6.1,14.5h-1.3L266.2,283.6z M265.7,282.6l-3.5-8.4l-3.5,8.4
				H265.7z"/>
		</g>
		<g>
			<path class="st0" d="M267.2,316.6v1h-9.1v-14.5h9v1h-7.8v5.6h7.2v1h-7.2v5.8h7.9V316.6z"/>
		</g>
		<g>
			<path class="st0" d="M266.2,344.2h-7.9l-1.5,3.7h-1.3l6.1-14.5h1.3l6.1,14.5h-1.3L266.2,344.2z M265.7,343.1l-3.5-8.4l-3.5,8.4
				H265.7z"/>
		</g>
	</g>
</g>
<g>
	<g>
		<g>
			<path class="st1" d="M146.4,505l-6.9-11.8c5-2.1,8.3-5.8,8.3-12.6c0-6.5-2.6-8.2-4.9-8.2c-3.7,0-5.2,3.4-7.6,12.4
				c-2.5,8.9-6.8,17.7-18.3,17.7c-11.6,0-18.3-9.8-18.3-20.2c0-9.9,4.7-17.6,13.6-22l6.8,11.6c-4.3,2.1-7,4.9-7,10.4
				c0,4.3,2.1,6.4,4.5,6.4c2.7,0,4.6-1.5,7.5-10.8c2.7-9.1,5.9-19.3,18.6-19.3c11.6,0,18.5,9.3,18.5,22.3
				C161.3,493.6,155.3,501.7,146.4,505z"/>
			<path class="st1" d="M138.6,453.1c-12.8,0-22.7-10.1-22.7-22.7s9.9-22.8,22.7-22.8s22.7,10.1,22.7,22.8S151.4,453.1,138.6,453.1z
				 M138.6,420.5c-6.1,0-10.1,4.3-10.1,9.9s4,9.9,10.1,9.9s10.1-4.3,10.1-9.9S144.7,420.5,138.6,420.5z"/>
			<path class="st1" d="M138.6,354.1c12.8,0,22.7,9.3,22.7,20.5c0,5.8-2,10-5.2,12.8h4v12.9H100v-12.9h21.2c-3.3-2.8-5.2-7-5.2-12.8
				C115.9,363.4,125.8,354.1,138.6,354.1z M138.6,367c-6.4,0-10.5,4.3-10.5,10.2s4,10.2,10.5,10.2s10.5-4.3,10.5-10.2
				S145,367,138.6,367z"/>
			<path class="st1" d="M116.3,321.1h14.6c-0.9,5.3,1.3,12.9,9.8,12.9h19.4v12.9h-42.9V334h7.6C119,332.2,116.3,326.5,116.3,321.1z"
				/>
			<path class="st1" d="M149.8,294.6c0-3.5-1.4-6.5-3.3-8.2l5.9-10.3c5.8,4.2,8.8,10.6,8.8,18.7c0,14.7-9.9,23.8-22.7,23.8
				s-22.7-9.3-22.7-22.8c0-12.5,9.7-21.8,22.7-21.8c1.8,0,3.5,0.2,5.2,0.5V305C148.2,303.2,149.8,299.3,149.8,294.6z M134.1,286.7
				c-5,1.4-6.8,5.2-6.8,9.1c0,4.9,2.4,8.2,6.8,9.4V286.7z"/>
		</g>
	</g>
	<g>
		<polygon class="st1" points="147.4,638.9 133.2,624.8 119.1,638.9 114.8,634.7 133.2,616.3 151.6,634.7 		"/>
		<polygon class="st1" points="147.4,607.2 133.2,593 119.1,607.2 114.8,603 133.2,584.6 151.6,603 		"/>
		<polygon class="st1" points="147.4,575.5 133.2,561.3 119.1,575.5 114.8,571.2 133.2,552.8 151.6,571.2 		"/>
	</g>
</g>
</svg>
