<?xml version="1.0" encoding="utf-8"?>
<!-- Generator: Adobe Illustrator 24.2.1, SVG Export Plug-In . SVG Version: 6.00 Build 0)  -->
<svg version="1.1" id="Layer_1" xmlns="http://www.w3.org/2000/svg" xmlns:xlink="http://www.w3.org/1999/xlink" x="0px" y="0px"
	 viewBox="0 0 1229.8 237.6" style="enable-background:new 0 0 1229.8 237.6;" xml:space="preserve">
<style type="text/css">
	.st0{fill:#e2dfeb;}
</style>
<g>
	<g>
		<path class="st0" d="M178.7,93.2h-20.6V40.8L134.8,79h-2.3l-23.3-38.2v52.4H88.6V3.1h20.6l24.4,40l24.4-40h20.6V93.2z"/>
		<path class="st0" d="M259.5,28.8v64.3h-19.3v-6C236,92,229.6,95,221,95c-16.9,0-30.8-14.8-30.8-34s13.9-34,30.8-34
			c8.6,0,14.9,3,19.2,7.8v-6H259.5z M240.2,61c0-9.7-6.4-15.7-15.3-15.7c-8.9,0-15.3,6-15.3,15.7s6.4,15.7,15.3,15.7
			C233.8,76.7,240.2,70.6,240.2,61z"/>
		<path class="st0" d="M312.3,27.5v21.9c-8-1.3-19.3,1.9-19.3,14.7v29.1h-19.3V28.8H293v11.5C295.5,31.7,304.1,27.5,312.3,27.5z"/>
		<path class="st0" d="M319.3,11.6c0-6.3,5.3-11.6,11.6-11.6s11.6,5.3,11.6,11.6s-5.3,11.6-11.6,11.6S319.3,17.9,319.3,11.6z
			 M321.3,28.8h19.3v64.3h-19.3V28.8z"/>
		<path class="st0" d="M420.7,28.8v64.3h-19.3v-6c-4.2,4.9-10.6,7.8-19.2,7.8c-16.9,0-30.8-14.8-30.8-34s13.9-34,30.8-34
			c8.6,0,14.9,3,19.2,7.8v-6H420.7z M401.4,61c0-9.7-6.4-15.7-15.3-15.7c-8.9,0-15.3,6-15.3,15.7s6.4,15.7,15.3,15.7
			C395,76.7,401.4,70.6,401.4,61z"/>
		<path class="st0" d="M496.6,53.7v39.5h-19.3V56.5c0-8-5-11.7-11.2-11.7c-7.1,0-12,4.1-12,13.3v35.1h-19.3V28.8h19.3v6
			c3.5-4.8,9.9-7.8,18.4-7.8C485.6,27,496.6,36.3,496.6,53.7z"/>
		<path class="st0" d="M575.9,28.8v64.3h-19.3v-6c-4.2,4.9-10.6,7.8-19.2,7.8c-16.9,0-30.8-14.8-30.8-34s13.9-34,30.8-34
			c8.6,0,14.9,3,19.2,7.8v-6H575.9z M556.6,61c0-9.7-6.4-15.7-15.3-15.7S526,51.3,526,61s6.4,15.7,15.3,15.7S556.6,70.6,556.6,61z"
			/>
	</g>
	<g>
		<path class="st0" d="M308.3,206.3h-9.8v29.6h-20.6v-90.1h36c17.1,0,30.9,13.8,30.9,30.9c0,11.1-6.7,21.1-16.6,26.1l19.2,33.1
			h-22.1L308.3,206.3z M298.5,188.2H314c5.7,0,10.3-5,10.3-11.6s-4.6-11.6-10.3-11.6h-15.4V188.2z"/>
		<path class="st0" d="M419.2,171.5v64.3h-19.3v-6c-4.2,4.9-10.6,7.8-19.2,7.8c-16.9,0-30.8-14.8-30.8-34s13.9-34,30.8-34
			c8.6,0,14.9,3,19.2,7.8v-6H419.2z M399.9,203.7c0-9.7-6.4-15.7-15.3-15.7s-15.3,6-15.3,15.7s6.4,15.7,15.3,15.7
			S399.9,213.3,399.9,203.7z"/>
		<path class="st0" d="M529.9,196.3v39.5h-19.3V198c0-6.4-3.1-10.6-9.3-10.6c-6.4,0-10,4.5-10,12.1v36.3H472V198
			c0-6.4-3.1-10.6-9.3-10.6c-6.4,0-10,4.5-10,12.1v36.3h-19.3v-64.3h19.3v5.9c3-4.4,8.6-7.7,17.2-7.7c7.6,0,13.3,3.1,16.9,8.5
			c3.6-5.1,9.5-8.5,18.7-8.5C520.2,169.7,529.9,180.3,529.9,196.3z"/>
		<path class="st0" d="M609.2,171.5v64.3h-19.3v-6c-4.2,4.9-10.6,7.8-19.2,7.8c-16.9,0-30.8-14.8-30.8-34s13.9-34,30.8-34
			c8.6,0,14.9,3,19.2,7.8v-6H609.2z M589.9,203.7c0-9.7-6.4-15.7-15.3-15.7c-8.9,0-15.3,6-15.3,15.7s6.4,15.7,15.3,15.7
			C583.4,219.4,589.9,213.3,589.9,203.7z"/>
		<path class="st0" d="M620.1,203.7c0-19.2,14.5-34,34.1-34c12.5,0,23.5,6.6,29.1,16.5l-16.9,9.8c-2.2-4.5-6.8-7.2-12.5-7.2
			c-8.4,0-14.5,6-14.5,14.9c0,8.9,6.2,14.9,14.5,14.9c5.7,0,10.4-2.7,12.5-7.2l16.9,9.7c-5.5,10-16.5,16.6-29.1,16.6
			C634.6,237.6,620.1,222.9,620.1,203.7z"/>
		<path class="st0" d="M686.5,203.7c0-19.2,14.5-34,34.1-34c12.5,0,23.5,6.6,29.1,16.5l-16.9,9.8c-2.2-4.5-6.8-7.2-12.5-7.2
			c-8.4,0-14.5,6-14.5,14.9c0,8.9,6.2,14.9,14.5,14.9c5.7,0,10.4-2.7,12.5-7.2l16.9,9.7c-5.5,10-16.5,16.6-29.1,16.6
			C701,237.6,686.5,222.9,686.5,203.7z"/>
		<path class="st0" d="M755.5,154.3c0-6.3,5.3-11.6,11.6-11.6c6.3,0,11.6,5.3,11.6,11.6s-5.3,11.6-11.6,11.6
			C760.7,165.8,755.5,160.6,755.5,154.3z M757.4,171.5h19.3v64.3h-19.3V171.5z"/>
		<path class="st0" d="M787.6,203.7c0-19.2,15.2-34,34.1-34c18.9,0,34.1,14.8,34.1,34s-15.2,34-34.1,34
			C802.8,237.6,787.6,222.9,787.6,203.7z M836.5,203.7c0-9.1-6.4-15.2-14.8-15.2c-8.4,0-14.8,6-14.8,15.2s6.4,15.2,14.8,15.2
			C830.1,218.9,836.5,212.8,836.5,203.7z"/>
		<path class="st0" d="M889.9,190v22.8c0,5.5,4.8,6,13.3,5.5v17.5c-25.2,2.6-32.6-5-32.6-23V190h-10.3v-18.5h10.3v-12.2l19.3-5.8v18
			h13.3V190H889.9z"/>
		<path class="st0" d="M936.6,190v22.8c0,5.5,4.8,6,13.3,5.5v17.5c-25.2,2.6-32.6-5-32.6-23V190H907v-18.5h10.3v-12.2l19.3-5.8v18
			h13.3V190H936.6z"/>
		<path class="st0" d="M958.9,154.3c0-6.3,5.3-11.6,11.6-11.6c6.3,0,11.6,5.3,11.6,11.6s-5.3,11.6-11.6,11.6
			C964.2,165.8,958.9,160.6,958.9,154.3z M960.8,171.5h19.3v64.3h-19.3V171.5z"/>
	</g>
	<rect x="638" y="57.8" class="st0" width="156" height="3"/>
	<g>
		<path class="st0" d="M845.8,43.8v12h13.9V58h-13.9v13.8h-2.3V41.7h16.7v2.1H845.8z"/>
		<path class="st0" d="M883,50.3v21.5h-2.1v-4.1c-1.6,3.2-4.4,4.6-7.7,4.6c-5.1,0-8.3-3.4-8.3-8.6V50.3h2.2v13.4
			c0,4,2.3,6.5,6.3,6.5c4.2,0,7.5-2.8,7.5-8.6V50.3H883z"/>
		<path class="st0" d="M889.7,40.4h2.2v31.4h-2.2V40.4z"/>
		<path class="st0" d="M898.4,40.4h2.2v31.4h-2.2V40.4z"/>
		<path class="st0" d="M905.8,65.1l2-1.2c1,3.6,4.1,6.1,9,6.1c5,0,7.6-2.6,7.6-6c0-3.6-3.2-5-7.8-6.5c-5-1.6-9.5-3.1-9.5-8.3
			c0-4.9,4-8.1,9.1-8.1c4.9,0,8.2,2.8,9.7,6.3l-1.9,1.1c-1.1-2.7-3.4-5.2-7.7-5.2c-4.2,0-6.8,2.5-6.8,5.8c0,3.6,3.1,4.7,7.4,6.1
			c5.3,1.8,10,3.4,10,8.6c0,5-3.9,8.3-9.9,8.3C911.2,72.2,907.2,69.4,905.8,65.1z"/>
		<path class="st0" d="M935.8,52.4v14c0,3.8,2,3.9,6.4,3.5v1.9c-5.6,0.9-8.6-0.5-8.6-5.4v-14h-4.7v-2.1h4.7v-5.4l2.2-0.6v6h6.4v2.1
			H935.8z"/>
		<path class="st0" d="M967.2,50.3v21.5H965v-4.9c-1.8,3.2-5.1,5.3-9.2,5.3c-6.1,0-11.1-4.9-11.1-11.2c0-6.4,5-11.2,11.1-11.2
			c4.1,0,7.4,2.1,9.2,5.3v-4.9H967.2z M965,61c0-5.1-4-9.2-9.1-9.2c-5.1,0-9.1,4-9.1,9.2c0,5.1,4,9.2,9.1,9.2
			C961.1,70.2,965,66.1,965,61z"/>
		<path class="st0" d="M972.4,61c0-6.4,4.8-11.2,11.3-11.2c4.2,0,7.8,2.1,9.4,5.5l-1.8,1c-1.2-2.7-4.2-4.5-7.6-4.5
			c-5.2,0-9.1,4-9.1,9.2c0,5.1,3.9,9.2,9.1,9.2c3.5,0,6.3-1.8,7.7-4.5l1.8,1.1c-1.7,3.3-5.3,5.5-9.5,5.5
			C977.2,72.2,972.4,67.4,972.4,61z"/>
		<path class="st0" d="M1011.5,71.8l-11.4-10.6v10.6H998V41.7h2.2V60l10.9-9.8h3l-11.6,10.3l12,11.2H1011.5z"/>
		<path class="st0" d="M1056.2,56.7c0,8.3-5.9,15-14.2,15h-11.3V41.7h11.3C1050.3,41.7,1056.2,48.4,1056.2,56.7z M1053.9,56.7
			c0-7.1-4.9-12.9-12-12.9h-9v25.8h9C1049.1,69.6,1053.9,63.9,1053.9,56.7z"/>
		<path class="st0" d="M1081.8,61.1c0,0.3,0,0.7,0,1h-19.5c0.5,4.9,4.2,8,9.1,8c3.5,0,6.2-1.6,7.4-3.9l1.9,1.1
			c-1.8,2.9-5.1,4.9-9.4,4.9c-6.6,0-11.3-4.7-11.3-11.2c0-6.3,4.6-11.2,11.1-11.2C1077.7,49.8,1081.8,55.2,1081.8,61.1z M1062.3,60
			h17.3c-0.5-5.2-4.2-8.2-8.4-8.2C1066.3,51.9,1062.7,55.3,1062.3,60z"/>
		<path class="st0" d="M1104,50.3l-9.1,21.5h-2.6l-9.1-21.5h2.3l8.1,19.3l8.1-19.3H1104z"/>
		<path class="st0" d="M1127.4,61.1c0,0.3,0,0.7,0,1h-19.5c0.5,4.9,4.2,8,9.1,8c3.5,0,6.2-1.6,7.4-3.9l1.9,1.1
			c-1.8,2.9-5.1,4.9-9.4,4.9c-6.6,0-11.3-4.7-11.3-11.2c0-6.3,4.6-11.2,11.1-11.2C1123.3,49.8,1127.4,55.2,1127.4,61.1z M1107.8,60
			h17.3c-0.5-5.2-4.2-8.2-8.4-8.2C1111.8,51.9,1108.3,55.3,1107.8,60z"/>
		<path class="st0" d="M1132.4,40.4h2.2v31.4h-2.2V40.4z"/>
		<path class="st0" d="M1139.7,61c0-6.4,5-11.2,11.3-11.2c6.2,0,11.3,4.9,11.3,11.2c0,6.4-5,11.2-11.3,11.2
			C1144.7,72.2,1139.7,67.4,1139.7,61z M1160.1,61c0-5.1-4-9.2-9.1-9.2c-5.1,0-9.1,4-9.1,9.2c0,5.1,4,9.2,9.1,9.2
			C1156.1,70.2,1160.1,66.1,1160.1,61z"/>
		<path class="st0" d="M1190,61c0,6.4-5,11.2-11.1,11.2c-4.2,0-7.5-2.1-9.2-5.5v13.6h-2.2V50.3h2.2v5c1.8-3.3,5.1-5.5,9.2-5.5
			C1185,49.8,1190,54.6,1190,61z M1187.8,61c0-5.1-4-9.2-9.1-9.2c-5.1,0-9.1,4-9.1,9.2c0,5.1,4,9.2,9.1,9.2
			C1183.8,70.2,1187.8,66.1,1187.8,61z"/>
		<path class="st0" d="M1215.5,61.1c0,0.3,0,0.7,0,1h-19.5c0.5,4.9,4.2,8,9.1,8c3.5,0,6.2-1.6,7.4-3.9l1.9,1.1
			c-1.8,2.9-5.1,4.9-9.4,4.9c-6.6,0-11.3-4.7-11.3-11.2c0-6.3,4.6-11.2,11.1-11.2C1211.4,49.8,1215.5,55.2,1215.5,61.1z M1195.9,60
			h17.3c-0.5-5.2-4.2-8.2-8.4-8.2C1199.9,51.9,1196.4,55.3,1195.9,60z"/>
		<path class="st0" d="M1229.8,50V52c-3.7,0-7.2,2.3-7.2,7.8v12h-2.2V50.3h2.2v4.2C1224.1,51.1,1226.9,50,1229.8,50z"/>
	</g>
	<polygon class="st0" points="30.9,80.1 0,49.2 30.9,18.2 35.2,22.5 8.5,49.2 35.2,75.9 	"/>
	<polygon class="st0" points="1074.3,229.1 1070.1,224.8 1096.8,198.2 1070.1,171.5 1074.3,167.2 1105.3,198.2 	"/>
	
		<rect x="997.1" y="192.2" transform="matrix(0.4592 -0.8884 0.8884 0.4592 387.6976 1027.1089)" class="st0" width="80.6" height="6"/>
</g>
</svg>
