<?xml version="1.0" encoding="utf-8"?>
<!-- Generator: Adobe Illustrator 25.2.3, SVG Export Plug-In . SVG Version: 6.00 Build 0)  -->
<svg version="1.1" xmlns="http://www.w3.org/2000/svg" xmlns:xlink="http://www.w3.org/1999/xlink" x="0px" y="0px"
	 viewBox="0 0 1229.8 237.6" style="enable-background:new 0 0 1229.8 237.6;" xml:space="preserve">
<style type="text/css">
	.st0{fill:#E2DFEB;}
	.st1{display:none;}
</style>
<g id="Layer_1">
	<g>
		<g>
			<path class="st0" d="M178.7,93.2h-20.6V40.8L134.8,79h-2.3l-23.3-38.2v52.4H88.6V3.1h20.6l24.4,40l24.4-40h20.6v90.1H178.7z"/>
			<path class="st0" d="M259.5,28.8v64.3h-19.3v-6C236,92,229.6,95,221,95c-16.9,0-30.8-14.8-30.8-34s13.9-34,30.8-34
				c8.6,0,14.9,3,19.2,7.8v-6H259.5z M240.2,61c0-9.7-6.4-15.7-15.3-15.7c-8.9,0-15.3,6-15.3,15.7s6.4,15.7,15.3,15.7
				S240.2,70.6,240.2,61z"/>
			<path class="st0" d="M312.3,27.5v21.9c-8-1.3-19.3,1.9-19.3,14.7v29.1h-19.3V28.8H293v11.5C295.5,31.7,304.1,27.5,312.3,27.5z"/>
			<path class="st0" d="M319.3,11.6c0-6.3,5.3-11.6,11.6-11.6s11.6,5.3,11.6,11.6s-5.3,11.6-11.6,11.6S319.3,17.9,319.3,11.6z
				 M321.3,28.8h19.3v64.3h-19.3V28.8z"/>
			<path class="st0" d="M420.7,28.8v64.3h-19.3v-6c-4.2,4.9-10.6,7.8-19.2,7.8c-16.9,0-30.8-14.8-30.8-34s13.9-34,30.8-34
				c8.6,0,14.9,3,19.2,7.8v-6L420.7,28.8L420.7,28.8z M401.4,61c0-9.7-6.4-15.7-15.3-15.7s-15.3,6-15.3,15.7s6.4,15.7,15.3,15.7
				S401.4,70.6,401.4,61z"/>
			<path class="st0" d="M496.6,53.7v39.5h-19.3V56.5c0-8-5-11.7-11.2-11.7c-7.1,0-12,4.1-12,13.3v35.1h-19.3V28.8h19.3v6
				c3.5-4.8,9.9-7.8,18.4-7.8C485.6,27,496.6,36.3,496.6,53.7z"/>
			<path class="st0" d="M575.9,28.8v64.3h-19.3v-6c-4.2,4.9-10.6,7.8-19.2,7.8c-16.9,0-30.8-14.8-30.8-34s13.9-34,30.8-34
				c8.6,0,14.9,3,19.2,7.8v-6L575.9,28.8L575.9,28.8z M556.6,61c0-9.7-6.4-15.7-15.3-15.7S526,51.3,526,61s6.4,15.7,15.3,15.7
				S556.6,70.6,556.6,61z"/>
		</g>
		<g>
			<path class="st0" d="M308.3,206.3h-9.8v29.6h-20.6v-90.1h36c17.1,0,30.9,13.8,30.9,30.9c0,11.1-6.7,21.1-16.6,26.1l19.2,33.1
				h-22.1L308.3,206.3z M298.5,188.2H314c5.7,0,10.3-5,10.3-11.6S319.7,165,314,165h-15.4v23.2H298.5z"/>
			<path class="st0" d="M419.2,171.5v64.3h-19.3v-6c-4.2,4.9-10.6,7.8-19.2,7.8c-16.9,0-30.8-14.8-30.8-34s13.9-34,30.8-34
				c8.6,0,14.9,3,19.2,7.8v-6L419.2,171.5L419.2,171.5z M399.9,203.7c0-9.7-6.4-15.7-15.3-15.7s-15.3,6-15.3,15.7
				s6.4,15.7,15.3,15.7S399.9,213.3,399.9,203.7z"/>
			<path class="st0" d="M529.9,196.3v39.5h-19.3V198c0-6.4-3.1-10.6-9.3-10.6c-6.4,0-10,4.5-10,12.1v36.3H472V198
				c0-6.4-3.1-10.6-9.3-10.6c-6.4,0-10,4.5-10,12.1v36.3h-19.3v-64.3h19.3v5.9c3-4.4,8.6-7.7,17.2-7.7c7.6,0,13.3,3.1,16.9,8.5
				c3.6-5.1,9.5-8.5,18.7-8.5C520.2,169.7,529.9,180.3,529.9,196.3z"/>
			<path class="st0" d="M609.2,171.5v64.3h-19.3v-6c-4.2,4.9-10.6,7.8-19.2,7.8c-16.9,0-30.8-14.8-30.8-34s13.9-34,30.8-34
				c8.6,0,14.9,3,19.2,7.8v-6L609.2,171.5L609.2,171.5z M589.9,203.7c0-9.7-6.4-15.7-15.3-15.7c-8.9,0-15.3,6-15.3,15.7
				s6.4,15.7,15.3,15.7C583.4,219.4,589.9,213.3,589.9,203.7z"/>
			<path class="st0" d="M620.1,203.7c0-19.2,14.5-34,34.1-34c12.5,0,23.5,6.6,29.1,16.5l-16.9,9.8c-2.2-4.5-6.8-7.2-12.5-7.2
				c-8.4,0-14.5,6-14.5,14.9s6.2,14.9,14.5,14.9c5.7,0,10.4-2.7,12.5-7.2l16.9,9.7c-5.5,10-16.5,16.6-29.1,16.6
				C634.6,237.6,620.1,222.9,620.1,203.7z"/>
			<path class="st0" d="M686.5,203.7c0-19.2,14.5-34,34.1-34c12.5,0,23.5,6.6,29.1,16.5l-16.9,9.8c-2.2-4.5-6.8-7.2-12.5-7.2
				c-8.4,0-14.5,6-14.5,14.9s6.2,14.9,14.5,14.9c5.7,0,10.4-2.7,12.5-7.2l16.9,9.7c-5.5,10-16.5,16.6-29.1,16.6
				C701,237.6,686.5,222.9,686.5,203.7z"/>
			<path class="st0" d="M755.5,154.3c0-6.3,5.3-11.6,11.6-11.6s11.6,5.3,11.6,11.6s-5.3,11.6-11.6,11.6
				C760.7,165.8,755.5,160.6,755.5,154.3z M757.4,171.5h19.3v64.3h-19.3V171.5z"/>
			<path class="st0" d="M787.6,203.7c0-19.2,15.2-34,34.1-34c18.9,0,34.1,14.8,34.1,34s-15.2,34-34.1,34
				C802.8,237.6,787.6,222.9,787.6,203.7z M836.5,203.7c0-9.1-6.4-15.2-14.8-15.2c-8.4,0-14.8,6-14.8,15.2s6.4,15.2,14.8,15.2
				S836.5,212.8,836.5,203.7z"/>
			<path class="st0" d="M889.9,190v22.8c0,5.5,4.8,6,13.3,5.5v17.5c-25.2,2.6-32.6-5-32.6-23V190h-10.3v-18.5h10.3v-12.2l19.3-5.8
				v18h13.3V190H889.9z"/>
			<path class="st0" d="M936.6,190v22.8c0,5.5,4.8,6,13.3,5.5v17.5c-25.2,2.6-32.6-5-32.6-23V190H907v-18.5h10.3v-12.2l19.3-5.8v18
				h13.3V190H936.6z"/>
			<path class="st0" d="M958.9,154.3c0-6.3,5.3-11.6,11.6-11.6s11.6,5.3,11.6,11.6s-5.3,11.6-11.6,11.6
				C964.2,165.8,958.9,160.6,958.9,154.3z M960.8,171.5h19.3v64.3h-19.3V171.5z"/>
		</g>
		<rect x="638" y="57.8" class="st0" width="156" height="3"/>
		<polygon class="st0" points="30.9,80.1 0,49.2 30.9,18.2 35.2,22.5 8.5,49.2 35.2,75.9 		"/>
		<polygon class="st0" points="1074.3,229.1 1070.1,224.8 1096.8,198.2 1070.1,171.5 1074.3,167.2 1105.3,198.2 		"/>
		
			<rect x="997.2" y="192.1" transform="matrix(0.4592 -0.8883 0.8883 0.4592 387.7686 1027.1743)" class="st0" width="80.6" height="6"/>
		<g>
			<path class="st0" d="M844.1,70.8c-0.4,0-0.7-0.1-0.9-0.4c-0.2-0.2-0.3-0.5-0.3-0.9V43.7c0-0.3,0.1-0.6,0.4-0.9
				c0.2-0.2,0.5-0.4,0.9-0.4H859c0.4,0,0.6,0.1,0.9,0.3c0.2,0.2,0.3,0.5,0.3,0.9c0,0.3-0.1,0.6-0.3,0.8c-0.2,0.2-0.5,0.3-0.9,0.3
				h-13.8l0.2-0.2v10.8l-0.2-0.4h12c0.4,0,0.6,0.1,0.9,0.3c0.2,0.2,0.3,0.5,0.3,0.8c0,0.4-0.1,0.6-0.3,0.9c-0.2,0.2-0.5,0.3-0.9,0.3
				h-12.1l0.3-0.3v12.5c0,0.3-0.1,0.6-0.3,0.9C844.8,70.7,844.5,70.8,844.1,70.8z"/>
			<path class="st0" d="M866.3,70.8c-0.4,0-0.7-0.1-0.9-0.4c-0.2-0.2-0.3-0.5-0.3-0.9V51.4c0-0.3,0.1-0.6,0.3-0.9s0.5-0.4,0.9-0.4
				s0.6,0.1,0.9,0.4s0.3,0.5,0.3,0.9v6.1l-0.6,0.1c0.1-0.9,0.3-1.9,0.7-2.8s0.9-1.8,1.6-2.6c0.7-0.8,1.5-1.4,2.4-1.9
				c0.9-0.5,2-0.7,3.2-0.7c0.5,0,1,0.1,1.4,0.3c0.5,0.2,0.7,0.5,0.7,1c0,0.4-0.1,0.7-0.3,0.9c-0.2,0.2-0.5,0.3-0.8,0.3
				c-0.2,0-0.5-0.1-0.8-0.2c-0.3-0.1-0.7-0.2-1.1-0.2c-0.8,0-1.5,0.2-2.3,0.7c-0.8,0.4-1.5,1-2.1,1.8c-0.6,0.8-1.1,1.6-1.5,2.5
				c-0.4,0.9-0.6,1.9-0.6,2.8v10c0,0.3-0.1,0.6-0.4,0.9C866.9,70.7,866.6,70.8,866.3,70.8z"/>
			<path class="st0" d="M899.2,60.4c0,2.1-0.5,3.9-1.4,5.5s-2.1,2.9-3.7,3.8s-3.3,1.4-5.3,1.4c-1.9,0-3.7-0.5-5.3-1.4
				c-1.6-0.9-2.8-2.2-3.7-3.8s-1.4-3.5-1.4-5.5c0-2.1,0.5-3.9,1.4-5.5c0.9-1.6,2.2-2.9,3.7-3.8c1.6-0.9,3.3-1.4,5.3-1.4
				c2,0,3.7,0.5,5.3,1.4c1.6,0.9,2.8,2.2,3.7,3.8C898.8,56.5,899.2,58.3,899.2,60.4z M896.8,60.4c0-1.6-0.3-3.1-1-4.4
				c-0.7-1.3-1.6-2.3-2.8-3c-1.2-0.7-2.5-1.1-4.1-1.1c-1.5,0-2.8,0.4-4,1.1c-1.2,0.7-2.1,1.8-2.8,3c-0.7,1.3-1,2.7-1,4.4
				c0,1.6,0.3,3.1,1,4.4c0.7,1.3,1.6,2.3,2.8,3c1.2,0.7,2.5,1.1,4,1.1c1.5,0,2.9-0.4,4.1-1.1c1.2-0.7,2.1-1.7,2.8-3
				C896.4,63.5,896.8,62.1,896.8,60.4z"/>
			<path class="st0" d="M914.1,49.6c1.8,0,3.2,0.4,4.3,1.1c1.1,0.7,1.9,1.7,2.3,2.9s0.7,2.6,0.7,4.1v11.9c0,0.3-0.1,0.6-0.4,0.9
				c-0.2,0.2-0.5,0.4-0.9,0.4c-0.4,0-0.7-0.1-0.9-0.4c-0.2-0.2-0.3-0.5-0.3-0.9V57.8c0-1.1-0.2-2.1-0.5-3s-0.9-1.6-1.7-2.1
				c-0.8-0.5-1.9-0.8-3.2-0.8c-1.2,0-2.3,0.3-3.3,0.8c-1.1,0.5-1.9,1.3-2.6,2.1c-0.7,0.9-1,1.9-1,3v11.8c0,0.3-0.1,0.6-0.4,0.9
				c-0.2,0.2-0.5,0.4-0.9,0.4c-0.4,0-0.7-0.1-0.9-0.4c-0.2-0.2-0.3-0.5-0.3-0.9V51.4c0-0.3,0.1-0.6,0.3-0.9s0.5-0.4,0.9-0.4
				s0.6,0.1,0.9,0.4s0.3,0.5,0.3,0.9v3.4l-0.9,1.5c0.1-0.9,0.3-1.7,0.8-2.5c0.5-0.8,1.2-1.5,1.9-2.1c0.8-0.6,1.7-1.1,2.6-1.5
				C912.1,49.8,913.1,49.6,914.1,49.6z"/>
			<path class="st0" d="M926.5,50.2h9.5c0.3,0,0.6,0.1,0.8,0.3c0.2,0.2,0.3,0.5,0.3,0.8c0,0.3-0.1,0.6-0.3,0.8
				c-0.2,0.2-0.5,0.3-0.8,0.3h-9.5c-0.3,0-0.6-0.1-0.8-0.3c-0.2-0.2-0.3-0.5-0.3-0.8c0-0.3,0.1-0.6,0.3-0.8
				C925.9,50.3,926.2,50.2,926.5,50.2z M930.8,44.5c0.4,0,0.6,0.1,0.9,0.4c0.2,0.2,0.3,0.5,0.3,0.9V66c0,0.8,0.1,1.3,0.3,1.7
				c0.2,0.4,0.5,0.6,0.8,0.7c0.3,0.1,0.7,0.2,1,0.2c0.2,0,0.4,0,0.6-0.1s0.4-0.1,0.6-0.1c0.2,0,0.5,0.1,0.6,0.3
				c0.2,0.2,0.3,0.4,0.3,0.7c0,0.4-0.2,0.7-0.7,1c-0.4,0.3-1,0.4-1.6,0.4c-0.2,0-0.6,0-1.1-0.1s-1-0.2-1.5-0.4
				c-0.5-0.3-0.9-0.7-1.3-1.4c-0.3-0.6-0.5-1.6-0.5-2.8V45.7c0-0.3,0.1-0.6,0.3-0.9C930.1,44.6,930.4,44.5,930.8,44.5z"/>
			<path class="st0" d="M942.1,61.4c-0.3,0-0.6-0.1-0.8-0.3c-0.2-0.2-0.3-0.5-0.3-0.9c0-0.4,0.1-0.6,0.3-0.9
				c0.2-0.2,0.5-0.3,0.8-0.3h8.8c0.3,0,0.6,0.1,0.9,0.3c0.2,0.2,0.4,0.5,0.4,0.9c0,0.3-0.1,0.6-0.4,0.8c-0.2,0.2-0.5,0.3-0.9,0.3
				H942.1z"/>
			<path class="st0" d="M959.6,42.4h15c0.3,0,0.6,0.1,0.9,0.3c0.2,0.2,0.4,0.5,0.4,0.9c0,0.4-0.1,0.6-0.4,0.9
				c-0.2,0.2-0.5,0.3-0.9,0.3h-14.1l0.4-0.7v11.4l-0.5-0.5h12.3c0.3,0,0.6,0.1,0.9,0.4c0.2,0.2,0.4,0.5,0.4,0.9
				c0,0.4-0.1,0.6-0.4,0.9c-0.2,0.2-0.5,0.3-0.9,0.3h-12.2l0.4-0.4v11.7l-0.2-0.2h13.9c0.3,0,0.6,0.1,0.9,0.4
				c0.2,0.2,0.4,0.5,0.4,0.9c0,0.4-0.1,0.6-0.4,0.9c-0.2,0.2-0.5,0.3-0.9,0.3h-15c-0.3,0-0.6-0.1-0.9-0.4c-0.2-0.2-0.4-0.5-0.4-0.9
				V43.7c0-0.3,0.1-0.6,0.4-0.9C959,42.6,959.2,42.4,959.6,42.4z"/>
			<path class="st0" d="M990.8,49.6c1.8,0,3.2,0.4,4.3,1.1c1.1,0.7,1.9,1.7,2.3,2.9s0.7,2.6,0.7,4.1v11.9c0,0.3-0.1,0.6-0.4,0.9
				c-0.2,0.2-0.5,0.4-0.9,0.4c-0.4,0-0.7-0.1-0.9-0.4c-0.2-0.2-0.3-0.5-0.3-0.9V57.8c0-1.1-0.2-2.1-0.5-3s-0.9-1.6-1.7-2.1
				c-0.8-0.5-1.9-0.8-3.2-0.8c-1.2,0-2.3,0.3-3.3,0.8c-1.1,0.5-1.9,1.3-2.6,2.1c-0.7,0.9-1,1.9-1,3v11.8c0,0.3-0.1,0.6-0.4,0.9
				c-0.2,0.2-0.5,0.4-0.9,0.4c-0.4,0-0.7-0.1-0.9-0.4c-0.2-0.2-0.3-0.5-0.3-0.9V51.4c0-0.3,0.1-0.6,0.3-0.9s0.5-0.4,0.9-0.4
				s0.6,0.1,0.9,0.4s0.3,0.5,0.3,0.9v3.4l-0.9,1.5c0.1-0.9,0.3-1.7,0.8-2.5c0.5-0.8,1.2-1.5,1.9-2.1c0.8-0.6,1.7-1.1,2.6-1.5
				C988.9,49.8,989.9,49.6,990.8,49.6z"/>
			<path class="st0" d="M1021.6,40.8c0.4,0,0.6,0.1,0.9,0.3c0.2,0.2,0.3,0.5,0.3,0.9v27.5c0,0.3-0.1,0.6-0.4,0.9
				c-0.2,0.2-0.5,0.4-0.9,0.4c-0.4,0-0.7-0.1-0.9-0.4c-0.2-0.2-0.3-0.5-0.3-0.9v-4.8l0.7-0.6c0,0.8-0.2,1.5-0.6,2.4
				c-0.4,0.8-1,1.6-1.7,2.3c-0.8,0.7-1.6,1.3-2.6,1.7c-1,0.4-2.1,0.6-3.3,0.6c-1.8,0-3.4-0.5-4.9-1.4c-1.5-0.9-2.6-2.2-3.5-3.8
				s-1.3-3.5-1.3-5.5c0-2.1,0.4-3.9,1.3-5.5c0.8-1.6,2-2.9,3.4-3.8c1.4-0.9,3.1-1.4,4.9-1.4c1.1,0,2.2,0.2,3.2,0.6s1.9,1,2.7,1.7
				c0.8,0.7,1.4,1.5,1.8,2.4c0.5,0.9,0.7,1.8,0.7,2.8l-0.9-0.6V42c0-0.3,0.1-0.6,0.3-0.9C1020.9,41,1021.2,40.8,1021.6,40.8z
				 M1013.1,68.9c1.4,0,2.7-0.4,3.8-1.1c1.1-0.7,2-1.8,2.6-3c0.6-1.3,1-2.7,1-4.4c0-1.6-0.3-3.1-1-4.4c-0.6-1.3-1.5-2.3-2.6-3
				c-1.1-0.7-2.4-1.1-3.8-1.1c-1.4,0-2.7,0.4-3.8,1.1c-1.1,0.7-2,1.8-2.7,3c-0.6,1.3-1,2.7-1,4.4c0,1.6,0.3,3.1,1,4.4
				c0.6,1.3,1.5,2.3,2.7,3.1C1010.4,68.6,1011.7,68.9,1013.1,68.9z"/>
			<path class="st0" d="M1052.7,42.4c2,0,3.8,0.4,5.3,1.1c1.5,0.8,2.8,1.8,3.7,3.1s1.7,2.9,2.2,4.6c0.5,1.7,0.7,3.5,0.7,5.3
				c0,2.6-0.4,5-1.3,7.1c-0.9,2.1-2.2,3.9-3.9,5.1c-1.8,1.3-4,1.9-6.7,1.9h-10.4c-0.3,0-0.6-0.1-0.9-0.4c-0.2-0.2-0.4-0.5-0.4-0.9
				V43.7c0-0.3,0.1-0.6,0.4-0.9c0.2-0.2,0.5-0.4,0.9-0.4H1052.7z M1052.3,68.4c2.3,0,4.2-0.5,5.6-1.6s2.5-2.5,3.1-4.3
				c0.7-1.8,1-3.8,1-5.9c0-1.6-0.2-3.1-0.6-4.5c-0.4-1.4-0.9-2.7-1.7-3.8c-0.8-1.1-1.8-2-3-2.6c-1.2-0.6-2.7-1-4.4-1h-9l0.3-0.4
				v24.3l-0.2-0.4H1052.3z"/>
			<path class="st0" d="M1079.5,71.2c-2.1,0-4-0.4-5.6-1.3c-1.6-0.9-2.9-2.1-3.8-3.7c-0.9-1.6-1.4-3.5-1.4-5.6
				c0-2.3,0.5-4.3,1.4-5.9c0.9-1.6,2.1-2.9,3.6-3.7s3-1.3,4.6-1.3c1.2,0,2.4,0.2,3.5,0.6c1.1,0.4,2.1,1,3,1.9c0.9,0.8,1.6,1.8,2.1,3
				s0.8,2.6,0.9,4.1c0,0.3-0.1,0.6-0.4,0.8c-0.2,0.2-0.5,0.3-0.9,0.3h-16.4l-0.5-2.2h16.1l-0.5,0.5v-0.8c-0.1-1.3-0.6-2.3-1.3-3.2
				c-0.7-0.9-1.6-1.6-2.6-2c-1-0.5-2-0.7-3.1-0.7c-0.8,0-1.7,0.2-2.5,0.5c-0.9,0.3-1.6,0.8-2.3,1.5c-0.7,0.7-1.3,1.6-1.7,2.6
				c-0.4,1.1-0.7,2.3-0.7,3.8c0,1.6,0.3,3,1,4.3c0.7,1.3,1.6,2.3,2.8,3.1c1.2,0.8,2.7,1.1,4.5,1.1c0.9,0,1.8-0.1,2.5-0.4
				c0.8-0.3,1.4-0.6,2-1.1s1.1-0.9,1.5-1.4c0.3-0.2,0.6-0.4,0.9-0.4c0.3,0,0.6,0.1,0.8,0.3c0.2,0.2,0.3,0.5,0.3,0.7
				c0,0.3-0.1,0.6-0.4,0.9c-0.8,1-1.9,1.8-3.2,2.5C1082.5,70.8,1081,71.2,1079.5,71.2z"/>
			<path class="st0" d="M1092.3,49.7c0.2,0,0.4,0.1,0.7,0.2c0.2,0.1,0.4,0.3,0.5,0.6l7.2,16.8l-0.5,0.3l7.3-17.2
				c0.2-0.5,0.6-0.8,1.2-0.8c0.3,0,0.5,0.1,0.8,0.3c0.2,0.2,0.4,0.4,0.4,0.7c0,0.2,0,0.3-0.1,0.4c0,0.1-0.1,0.2-0.1,0.3l-8,18.6
				c-0.2,0.5-0.6,0.7-1.1,0.8c-0.2,0-0.5,0-0.7-0.2c-0.2-0.1-0.4-0.3-0.5-0.6l-8.1-18.6c0-0.1-0.1-0.1-0.1-0.2c0-0.1,0-0.2,0-0.3
				c0-0.3,0.1-0.6,0.3-0.8C1091.5,49.8,1091.9,49.7,1092.3,49.7z"/>
			<path class="st0" d="M1123.5,71.2c-2.1,0-4-0.4-5.6-1.3c-1.6-0.9-2.9-2.1-3.8-3.7c-0.9-1.6-1.4-3.5-1.4-5.6
				c0-2.3,0.5-4.3,1.4-5.9c0.9-1.6,2.1-2.9,3.6-3.7s3-1.3,4.6-1.3c1.2,0,2.4,0.2,3.5,0.6c1.1,0.4,2.1,1,3,1.9c0.9,0.8,1.6,1.8,2.1,3
				s0.8,2.6,0.9,4.1c0,0.3-0.1,0.6-0.4,0.8c-0.2,0.2-0.5,0.3-0.9,0.3h-16.4l-0.5-2.2h16.1l-0.5,0.5v-0.8c-0.1-1.3-0.6-2.3-1.3-3.2
				c-0.7-0.9-1.6-1.6-2.6-2c-1-0.5-2-0.7-3.1-0.7c-0.8,0-1.7,0.2-2.5,0.5c-0.9,0.3-1.6,0.8-2.3,1.5c-0.7,0.7-1.3,1.6-1.7,2.6
				c-0.4,1.1-0.7,2.3-0.7,3.8c0,1.6,0.3,3,1,4.3c0.7,1.3,1.6,2.3,2.8,3.1c1.2,0.8,2.7,1.1,4.5,1.1c0.9,0,1.8-0.1,2.5-0.4
				c0.8-0.3,1.4-0.6,2-1.1s1.1-0.9,1.5-1.4c0.3-0.2,0.6-0.4,0.9-0.4c0.3,0,0.6,0.1,0.8,0.3c0.2,0.2,0.3,0.5,0.3,0.7
				c0,0.3-0.1,0.6-0.4,0.9c-0.8,1-1.9,1.8-3.2,2.5C1126.5,70.8,1125,71.2,1123.5,71.2z"/>
			<path class="st0" d="M1139.7,69.6c0,0.3-0.1,0.6-0.4,0.9c-0.2,0.2-0.5,0.4-0.9,0.4c-0.4,0-0.6-0.1-0.9-0.4
				c-0.2-0.2-0.3-0.5-0.3-0.9V42c0-0.3,0.1-0.6,0.4-0.9c0.2-0.2,0.5-0.4,0.9-0.4c0.4,0,0.6,0.1,0.9,0.4c0.2,0.2,0.3,0.5,0.3,0.9
				V69.6z"/>
			<path class="st0" d="M1165.3,60.4c0,2.1-0.5,3.9-1.4,5.5s-2.1,2.9-3.7,3.8s-3.3,1.4-5.3,1.4c-1.9,0-3.7-0.5-5.3-1.4
				c-1.6-0.9-2.8-2.2-3.7-3.8s-1.4-3.5-1.4-5.5c0-2.1,0.5-3.9,1.4-5.5c0.9-1.6,2.2-2.9,3.7-3.8c1.6-0.9,3.3-1.4,5.3-1.4
				c2,0,3.7,0.5,5.3,1.4c1.6,0.9,2.8,2.2,3.7,3.8C1164.8,56.5,1165.3,58.3,1165.3,60.4z M1162.8,60.4c0-1.6-0.3-3.1-1-4.4
				c-0.7-1.3-1.6-2.3-2.8-3c-1.2-0.7-2.5-1.1-4.1-1.1c-1.5,0-2.8,0.4-4,1.1c-1.2,0.7-2.1,1.8-2.8,3c-0.7,1.3-1,2.7-1,4.4
				c0,1.6,0.3,3.1,1,4.4c0.7,1.3,1.6,2.3,2.8,3c1.2,0.7,2.5,1.1,4,1.1c1.5,0,2.9-0.4,4.1-1.1c1.2-0.7,2.1-1.7,2.8-3
				C1162.5,63.5,1162.8,62.1,1162.8,60.4z"/>
			<path class="st0" d="M1180.3,49.9c1.9,0,3.5,0.5,4.9,1.4c1.4,0.9,2.6,2.1,3.4,3.7c0.8,1.6,1.3,3.4,1.3,5.4c0,2.1-0.4,3.9-1.3,5.5
				c-0.8,1.6-2,2.8-3.4,3.8c-1.4,0.9-3.1,1.4-4.9,1.4c-1,0-1.9-0.1-2.7-0.4c-0.9-0.3-1.6-0.7-2.4-1.2s-1.3-1.1-1.9-1.7
				c-0.5-0.7-1-1.4-1.3-2.2l0.7-0.5v12.6c0,0.3-0.1,0.6-0.3,0.9c-0.2,0.2-0.5,0.4-0.9,0.4s-0.6-0.1-0.9-0.4
				c-0.2-0.2-0.3-0.5-0.3-0.9V51.3c0-0.4,0.1-0.6,0.3-0.9c0.2-0.2,0.5-0.4,0.9-0.4c0.4,0,0.6,0.1,0.9,0.4c0.2,0.2,0.3,0.5,0.3,0.9
				v4.4l-0.6-0.3c0.3-0.8,0.7-1.6,1.2-2.2c0.5-0.7,1.2-1.2,1.9-1.7c0.7-0.5,1.5-0.8,2.3-1.1C1178.4,50.1,1179.3,49.9,1180.3,49.9z
				 M1180.1,52.2c-1.5,0-2.8,0.4-3.9,1.1c-1.1,0.7-2,1.7-2.6,2.9c-0.6,1.2-1,2.7-1,4.3c0,1.6,0.3,3,1,4.3c0.6,1.3,1.5,2.3,2.6,3
				c1.1,0.7,2.4,1.1,3.9,1.1c1.4,0,2.7-0.4,3.8-1.1c1.1-0.7,2-1.7,2.6-3c0.7-1.3,1-2.7,1-4.3c0-1.6-0.3-3-1-4.3
				c-0.7-1.2-1.5-2.2-2.6-2.9C1182.8,52.6,1181.5,52.2,1180.1,52.2z"/>
			<path class="st0" d="M1204.2,71.2c-2.1,0-4-0.4-5.6-1.3c-1.6-0.9-2.9-2.1-3.8-3.7c-0.9-1.6-1.4-3.5-1.4-5.6
				c0-2.3,0.5-4.3,1.4-5.9c0.9-1.6,2.1-2.9,3.6-3.7s3-1.3,4.6-1.3c1.2,0,2.4,0.2,3.5,0.6c1.1,0.4,2.1,1,3,1.9c0.9,0.8,1.6,1.8,2.1,3
				s0.8,2.6,0.9,4.1c0,0.3-0.1,0.6-0.4,0.8c-0.2,0.2-0.5,0.3-0.9,0.3H1195l-0.5-2.2h16.1l-0.5,0.5v-0.8c-0.1-1.3-0.6-2.3-1.3-3.2
				c-0.7-0.9-1.6-1.6-2.6-2c-1-0.5-2-0.7-3.1-0.7c-0.8,0-1.7,0.2-2.5,0.5c-0.9,0.3-1.6,0.8-2.3,1.5c-0.7,0.7-1.3,1.6-1.7,2.6
				c-0.4,1.1-0.7,2.3-0.7,3.8c0,1.6,0.3,3,1,4.3c0.7,1.3,1.6,2.3,2.8,3.1c1.2,0.8,2.7,1.1,4.5,1.1c0.9,0,1.8-0.1,2.5-0.4
				c0.8-0.3,1.4-0.6,2-1.1s1.1-0.9,1.5-1.4c0.3-0.2,0.6-0.4,0.9-0.4c0.3,0,0.6,0.1,0.8,0.3c0.2,0.2,0.3,0.5,0.3,0.7
				c0,0.3-0.1,0.6-0.4,0.9c-0.8,1-1.9,1.8-3.2,2.5C1207.2,70.8,1205.8,71.2,1204.2,71.2z"/>
			<path class="st0" d="M1218.9,70.8c-0.4,0-0.7-0.1-0.9-0.4c-0.2-0.2-0.3-0.5-0.3-0.9V51.4c0-0.3,0.1-0.6,0.3-0.9s0.5-0.4,0.9-0.4
				s0.6,0.1,0.9,0.4s0.3,0.5,0.3,0.9v6.1l-0.6,0.1c0.1-0.9,0.3-1.9,0.7-2.8s0.9-1.8,1.6-2.6c0.7-0.8,1.5-1.4,2.4-1.9
				c0.9-0.5,2-0.7,3.2-0.7c0.5,0,1,0.1,1.4,0.3c0.5,0.2,0.7,0.5,0.7,1c0,0.4-0.1,0.7-0.3,0.9c-0.2,0.2-0.5,0.3-0.8,0.3
				c-0.2,0-0.5-0.1-0.8-0.2c-0.3-0.1-0.7-0.2-1.1-0.2c-0.8,0-1.5,0.2-2.3,0.7c-0.8,0.4-1.5,1-2.1,1.8c-0.6,0.8-1.1,1.6-1.5,2.5
				c-0.4,0.9-0.6,1.9-0.6,2.8v10c0,0.3-0.1,0.6-0.4,0.9C1219.6,70.7,1219.3,70.8,1218.9,70.8z"/>
		</g>
	</g>
</g>
<g id="Camada_2" class="st1">
	
		<text transform="matrix(1.011 0 0 1 730.4792 -168.3296)" style="display:inline;fill:#E2DFEB; font-family:'Quicksand-Regular'; font-size:40.4823px;">Front-End Developer</text>
</g>
</svg>
